<svg width="35" height="35" viewBox="0 0 35 35" fill="none" xmlns="http://www.w3.org/2000/svg">
<path d="M32.8809 35C22.627 35 12.373 35 2.11914 35C1.45605 34.8086 0.84082 34.5283 0.464844 33.9199C0.273438 33.5986 0.150391 33.2295 0 32.8809C0 22.627 0 12.373 0 2.11914C0.164062 1.57227 0.348633 1.01855 0.820312 0.683594C1.2168 0.40332 1.68164 0.225586 2.11914 0C12.373 0 22.627 0 32.8809 0C33.5439 0.18457 34.1592 0.47168 34.5352 1.08008C34.7334 1.40137 34.8496 1.77051 35 2.11914C35 12.373 35 22.627 35 32.8809C34.8086 33.5439 34.5283 34.1592 33.9199 34.5352C33.5986 34.7266 33.2295 34.8496 32.8809 35ZM17.5273 7.39648C17.5273 7.4375 17.5273 7.47852 17.5273 7.51953C16.0781 7.51953 14.6357 7.49219 13.1865 7.52637C12.0244 7.55371 10.9033 7.82715 9.91895 8.49023C8.27832 9.59766 7.57422 11.2314 7.5332 13.1318C7.47168 16.0439 7.49902 18.9629 7.52637 21.875C7.54004 23.0166 7.83398 24.1104 8.4834 25.0742C9.59082 26.7148 11.2246 27.4189 13.125 27.46C16.0371 27.5215 18.9561 27.5146 21.8682 27.46C23.4814 27.4326 24.9307 26.8994 26.0449 25.6553C27.0293 24.5547 27.4326 23.2285 27.46 21.793C27.5146 19.4004 27.5215 17.0078 27.5215 14.6152C27.5215 13.9111 27.4668 13.2002 27.3984 12.5029C27.125 9.78906 25.1836 7.82031 22.4629 7.59473C20.8359 7.46484 19.1816 7.45801 17.5273 7.39648Z" fill="#00E0FF"/>
<path d="M25.7715 17.4933C25.7305 19.0177 25.7236 20.5489 25.6348 22.0665C25.5117 24.1652 24.1787 25.5665 22.0801 25.6212C19.0449 25.7032 16.0029 25.7032 12.9609 25.6212C10.8145 25.5665 9.44044 24.1925 9.37892 22.0323C9.29689 18.9835 9.32423 15.9278 9.37892 12.879C9.40626 11.5597 10.0078 10.4659 11.2315 9.81652C11.9219 9.45422 12.6807 9.3175 13.4463 9.3175C16.3174 9.3175 19.1885 9.28332 22.0527 9.37218C24.1787 9.44054 25.4707 10.8146 25.6348 12.9405C25.6553 13.1661 25.6826 13.3917 25.6826 13.6241C25.6895 14.9093 25.6826 16.2013 25.6826 17.4864C25.7168 17.4864 25.7441 17.4933 25.7715 17.4933ZM22.6543 17.4864C22.6475 14.6359 20.3506 12.3458 17.5 12.3458C14.6426 12.339 12.332 14.6564 12.3389 17.5138C12.3457 20.3644 14.6426 22.6544 17.4932 22.6612C20.3506 22.6612 22.668 20.3439 22.6543 17.4864ZM24.0625 12.1202C24.0557 11.464 23.5225 10.9376 22.8662 10.9308C22.1895 10.9308 21.6563 11.4708 21.6631 12.1476C21.6699 12.8243 22.21 13.3439 22.8936 13.3302C23.5498 13.3234 24.0693 12.7833 24.0625 12.1202Z" fill="#00E0FF"/>
<path d="M17.5 14.1504C19.3457 14.1504 20.8428 15.6475 20.8496 17.4863C20.8564 19.3457 19.3457 20.8496 17.4863 20.8428C15.6475 20.8359 14.1504 19.332 14.1504 17.4863C14.1572 15.6543 15.6543 14.1504 17.5 14.1504Z" fill="#00E0FF"/>
</svg>
