<svg width="122" height="47" viewBox="0 0 122 47" fill="none" xmlns="http://www.w3.org/2000/svg">
<path d="M121.061 36.0607C121.646 35.4749 121.646 34.5251 121.061 33.9393L111.515 24.3934C110.929 23.8076 109.979 23.8076 109.393 24.3934C108.808 24.9792 108.808 25.9289 109.393 26.5147L117.879 35L109.393 43.4853C108.808 44.0711 108.808 45.0208 109.393 45.6066C109.979 46.1924 110.929 46.1924 111.515 45.6066L121.061 36.0607ZM0 36.5H120V33.5H0V36.5Z" fill="url(#paint0_linear_34_63)"/>
<path d="M20.7372 24H17.6352L10.6832 13.44V24H7.58124V8.468H10.6832L17.6352 19.116V8.468H20.7372V24ZM41.6061 17.444C41.6061 17.752 41.5695 18.104 41.4961 18.5H32.5641C32.6081 19.5853 32.9015 20.3847 33.4441 20.898C33.9868 21.4113 34.6615 21.668 35.4681 21.668C36.1868 21.668 36.7808 21.492 37.2501 21.14C37.7341 20.788 38.0421 20.3113 38.1741 19.71H41.4521C41.2908 20.5607 40.9461 21.3233 40.4181 21.998C39.8901 22.6727 39.2081 23.2007 38.3721 23.582C37.5508 23.9633 36.6341 24.154 35.6221 24.154C34.4341 24.154 33.3781 23.9047 32.4541 23.406C31.5301 22.8927 30.8115 22.1667 30.2981 21.228C29.7848 20.2893 29.5281 19.182 29.5281 17.906C29.5281 16.63 29.7848 15.5227 30.2981 14.584C30.8115 13.6307 31.5301 12.9047 32.4541 12.406C33.3781 11.9073 34.4341 11.658 35.6221 11.658C36.8248 11.658 37.8735 11.9073 38.7681 12.406C39.6775 12.9047 40.3741 13.594 40.8581 14.474C41.3568 15.3393 41.6061 16.3293 41.6061 17.444ZM38.4821 17.136C38.5261 16.1387 38.2621 15.3833 37.6901 14.87C37.1328 14.3567 36.4435 14.1 35.6221 14.1C34.7861 14.1 34.0821 14.3567 33.5101 14.87C32.9381 15.3833 32.6228 16.1387 32.5641 17.136H38.4821ZM57.8222 24L55.0502 20.084L52.7182 24H49.3082L53.3342 17.642L49.2202 11.812H52.6962L55.4022 15.662L57.7342 11.812H61.1442L57.0522 17.994L61.2982 24H57.8222ZM76.0026 21.338V24H74.3746C73.0106 24 71.9619 23.67 71.2286 23.01C70.5099 22.35 70.1506 21.25 70.1506 19.71V14.43H68.4566V11.812H70.1506V8.798H73.2526V11.812H75.9806V14.43H73.2526V19.754C73.2526 20.3407 73.3699 20.7513 73.6046 20.986C73.8393 21.2207 74.2353 21.338 74.7926 21.338H76.0026Z" fill="white"/>
<defs>
<linearGradient id="paint0_linear_34_63" x1="60" y1="35" x2="60" y2="36" gradientUnits="userSpaceOnUse">
<stop stop-color="#00BED8"/>
<stop offset="1" stop-color="#008294"/>
</linearGradient>
</defs>
</svg>
