<svg width="122" height="47" viewBox="0 0 122 47" fill="none" xmlns="http://www.w3.org/2000/svg">
<g opacity="0.5">
<path d="M0.939331 33.9394C0.353546 34.5251 0.353546 35.4749 0.939331 36.0607L10.4853 45.6066C11.0711 46.1924 12.0208 46.1924 12.6066 45.6066C13.1924 45.0208 13.1924 44.0711 12.6066 43.4853L4.12132 35L12.6066 26.5147C13.1924 25.9289 13.1924 24.9792 12.6066 24.3934C12.0208 23.8076 11.0711 23.8076 10.4853 24.3934L0.939331 33.9394ZM122 33.5L1.99999 33.5L1.99999 36.5L122 36.5L122 33.5Z" fill="url(#paint0_linear_34_64)"/>
<path d="M51.2959 18.236V24H48.1939V8.468H53.8479C55.6813 8.468 57.0599 8.908 57.9839 9.788C58.9226 10.668 59.3919 11.8633 59.3919 13.374C59.3919 14.8553 58.9079 16.036 57.9399 16.916C56.9866 17.796 55.6226 18.236 53.8479 18.236H51.2959ZM53.5179 15.75C55.3366 15.75 56.2459 14.958 56.2459 13.374C56.2459 12.5967 56.0333 12.0027 55.6079 11.592C55.1826 11.1813 54.4859 10.976 53.5179 10.976H51.2959V15.75H53.5179ZM71.1088 14.144C71.5635 13.3667 72.1648 12.758 72.9128 12.318C73.6608 11.8633 74.4968 11.636 75.4208 11.636V14.958H74.5188C72.2455 14.958 71.1088 16.014 71.1088 18.126V24H68.0068V11.812H71.1088V14.144ZM95.1997 17.444C95.1997 17.752 95.163 18.104 95.0897 18.5H86.1577C86.2017 19.5853 86.495 20.3847 87.0377 20.898C87.5804 21.4113 88.255 21.668 89.0617 21.668C89.7804 21.668 90.3744 21.492 90.8437 21.14C91.3277 20.788 91.6357 20.3113 91.7677 19.71H95.0457C94.8844 20.5607 94.5397 21.3233 94.0117 21.998C93.4837 22.6727 92.8017 23.2007 91.9657 23.582C91.1444 23.9633 90.2277 24.154 89.2157 24.154C88.0277 24.154 86.9717 23.9047 86.0477 23.406C85.1237 22.8927 84.405 22.1667 83.8917 21.228C83.3784 20.2893 83.1217 19.182 83.1217 17.906C83.1217 16.63 83.3784 15.5227 83.8917 14.584C84.405 13.6307 85.1237 12.9047 86.0477 12.406C86.9717 11.9073 88.0277 11.658 89.2157 11.658C90.4184 11.658 91.467 11.9073 92.3617 12.406C93.271 12.9047 93.9677 13.594 94.4517 14.474C94.9504 15.3393 95.1997 16.3293 95.1997 17.444ZM92.0757 17.136C92.1197 16.1387 91.8557 15.3833 91.2837 14.87C90.7264 14.3567 90.037 14.1 89.2157 14.1C88.3797 14.1 87.6757 14.3567 87.1037 14.87C86.5317 15.3833 86.2164 16.1387 86.1577 17.136H92.0757ZM109.304 20.898L112.384 11.812H115.684L111.174 24H107.39L102.88 11.812H106.202L109.304 20.898Z" fill="white"/>
</g>
<defs>
<linearGradient id="paint0_linear_34_64" x1="62" y1="35" x2="62" y2="34" gradientUnits="userSpaceOnUse">
<stop stop-color="#00BED8"/>
<stop offset="1" stop-color="#008294"/>
</linearGradient>
</defs>
</svg>
