<svg width="106" height="96" viewBox="0 0 106 96" fill="none" xmlns="http://www.w3.org/2000/svg">
<g filter="url(#filter0_d_82_9277)">
<path d="M48.6242 12.1507C57.9992 12.1507 67.3992 12.1507 76.7742 12.1507C84.9992 12.1507 91.6492 17.6007 93.2242 25.6757C93.4242 26.6757 93.4992 27.7257 93.4992 28.7507C93.5242 42.0757 93.5242 55.3757 93.4992 68.7007C93.4992 74.1257 89.6242 78.0007 84.1992 78.0257C83.5992 78.0257 83.1992 78.1757 82.8242 78.7007C81.0742 81.1757 78.6242 82.5007 75.5992 82.5007C56.8492 82.5257 38.1242 82.5257 19.3742 82.5007C15.6242 82.5007 12.6492 79.5507 12.6492 75.8007C12.6242 56.8257 12.6242 37.8757 12.6492 18.9007C12.6492 15.0507 15.6242 12.1507 19.5242 12.1257C29.2242 12.1257 38.9242 12.1507 48.6242 12.1507ZM15.6492 73.5507C15.6492 74.3257 15.6492 75.0007 15.6492 75.7007C15.6742 77.9257 17.2492 79.5507 19.4742 79.5507C38.1492 79.5507 56.8492 79.5757 75.5242 79.5507C78.8992 79.5507 81.4742 76.9257 81.4992 73.5257C81.5242 70.2757 81.4992 67.0257 81.4992 63.8007C81.4992 63.6007 81.4742 63.3757 81.4742 63.1757C74.1242 62.6507 71.0242 57.0257 71.0242 52.7507C71.0242 50.2007 71.7992 47.9007 73.4492 45.9507C75.5242 43.4757 78.2242 42.2757 81.4992 42.1257C81.4992 41.7757 81.4992 41.4507 81.4992 41.1507C81.4992 38.1757 81.4992 35.2257 81.4992 32.2507C81.4992 28.1257 79.0492 25.6757 74.9242 25.6757C57.0492 25.6757 39.1742 25.6757 21.2992 25.6757C19.3742 25.6757 17.4242 25.7507 15.6742 24.5757C15.6742 27.0007 15.6742 29.3007 15.6742 31.6507C18.2742 31.6507 20.8242 31.8507 23.3242 31.6007C26.7242 31.2507 29.5492 32.1257 31.8742 34.6507C32.3492 35.1757 32.8492 35.2507 33.5992 34.9507C35.4242 34.2007 37.4742 34.8507 38.6992 36.4507C39.8742 37.9757 39.8992 40.1257 38.8242 41.7007C37.6992 43.3257 35.6742 44.0257 33.7992 43.4507C31.9742 42.9007 30.4492 41.1507 30.6992 39.2757C30.8992 37.7507 30.2742 37.0007 29.1742 36.3007C28.6742 35.9757 28.2742 35.5007 27.7742 35.2257C27.3242 34.9757 26.7742 34.7007 26.2742 34.7007C23.0742 34.6507 19.8492 34.6757 16.6242 34.6757C16.3242 34.6757 16.0242 34.7007 15.6492 34.7257C15.6492 36.5007 15.6492 38.2007 15.6492 39.9257C15.6492 41.6507 15.6492 43.4007 15.6492 45.1757C17.6492 45.1757 19.4992 45.2007 21.3742 45.1507C21.6492 45.1507 21.9992 44.8257 22.1492 44.5757C23.1742 42.8507 25.0242 41.9007 26.8742 42.2507C28.9742 42.6507 30.5242 44.4007 30.6242 46.4507C30.7242 48.5257 29.3992 50.4007 27.3992 50.9757C25.3742 51.5757 23.2742 50.7257 22.1992 48.8507C22.0492 48.6007 21.8242 48.2257 21.6492 48.2007C19.6742 48.1507 17.6742 48.1757 15.7242 48.1757C15.7242 51.2507 15.7242 54.1757 15.7242 57.1257C15.8992 57.1507 15.9742 57.1507 16.0742 57.1507C17.7242 57.1507 19.3742 57.1257 21.0242 57.1757C21.6242 57.2007 21.9242 57.0007 22.2242 56.4507C23.1992 54.6507 25.2242 53.8007 27.1492 54.3007C29.1492 54.8007 30.5492 56.5257 30.5992 58.5507C30.6242 60.5757 29.2992 62.4007 27.3492 62.9507C25.3492 63.5257 23.2742 62.6757 22.1992 60.8757C22.0242 60.6007 21.7492 60.1757 21.4992 60.1757C19.5742 60.1257 17.6492 60.1507 15.6992 60.1507C15.6992 63.6757 15.6992 67.1257 15.6992 70.6257C18.2492 70.6257 20.7492 70.4257 23.2242 70.6757C26.0492 70.9507 28.2992 70.1507 30.2492 68.1507C30.6242 67.7507 30.8242 67.5007 30.7242 66.9007C30.1992 64.3007 32.2492 61.7757 34.8742 61.6507C36.6992 61.5757 38.4242 62.5757 39.1992 64.2257C39.9742 65.8757 39.6742 67.8507 38.4242 69.1757C37.1242 70.5507 35.2492 71.0257 33.4742 70.2757C32.8992 70.0257 32.5242 70.1257 32.0742 70.5007C31.0742 71.3507 30.0742 72.2007 28.9992 72.9507C28.4742 73.3007 27.7742 73.6007 27.1492 73.6007C23.3492 73.5757 19.5742 73.5507 15.6492 73.5507ZM90.5242 42.0507C90.5242 41.6007 90.5242 41.2757 90.5242 40.9257C90.5242 36.8507 90.5242 32.7507 90.5242 28.6757C90.5242 28.0507 90.4492 27.4257 90.3742 26.8257C89.6242 20.2757 83.7742 15.1007 76.7992 15.1257C57.8242 15.1757 38.8742 15.1507 19.8992 15.1507C19.6742 15.1507 19.4742 15.1507 19.2492 15.1507C16.7492 15.2757 15.0992 17.7007 15.8742 20.0507C16.4242 21.7507 17.7492 22.6257 19.7492 22.6257C38.2992 22.6257 56.8742 22.6257 75.4242 22.6257C80.5242 22.6257 84.4992 26.6007 84.5242 31.6757C84.5242 34.8007 84.5242 37.9257 84.5242 41.0257C84.5242 41.3507 84.5492 41.6757 84.5742 42.0257C86.5742 42.0507 88.4742 42.0507 90.5242 42.0507ZM90.4992 45.1257C90.1242 45.1007 89.8492 45.0757 89.5742 45.0757C86.9242 45.0757 84.2742 45.0757 81.6242 45.0757C77.3742 45.1007 74.0492 48.4007 74.0492 52.5757C74.0492 56.7257 77.3992 60.0257 81.6492 60.0507C84.2992 60.0507 86.9492 60.0507 89.5992 60.0507C89.8992 60.0507 90.1992 60.0257 90.4992 60.0007C90.4992 55.0257 90.4992 50.1257 90.4992 45.1257ZM84.5992 63.1007C84.5992 67.1257 84.5992 71.0507 84.5992 74.9757C87.1742 75.1007 89.9492 72.9757 90.2992 70.4507C90.5492 68.5257 90.4742 66.5507 90.5242 64.6007C90.5492 64.1257 90.5242 63.6257 90.5242 63.1007C88.4742 63.1007 86.5992 63.1007 84.5992 63.1007ZM36.6242 39.0757C36.6242 38.2507 35.9492 37.6007 35.1492 37.6007C34.2992 37.6007 33.5992 38.3007 33.6492 39.1507C33.6742 39.9507 34.3742 40.6007 35.1742 40.6007C35.9742 40.5757 36.6242 39.9007 36.6242 39.0757ZM27.6242 46.5757C27.6242 45.7507 26.9492 45.1007 26.1492 45.0757C25.3242 45.0757 24.6492 45.7257 24.6492 46.5257C24.6242 47.3757 25.3242 48.0757 26.1742 48.0507C26.9742 48.0757 27.6242 47.4007 27.6242 46.5757ZM27.6242 58.6007C27.6492 57.8007 26.9992 57.1007 26.1992 57.0507C25.3992 57.0257 24.6992 57.6507 24.6492 58.4507C24.5992 59.3007 25.2742 60.0257 26.1242 60.0257C26.9242 60.0757 27.5992 59.4257 27.6242 58.6007ZM36.6242 66.0257C36.6242 65.2007 35.9492 64.5507 35.1492 64.5507C34.3242 64.5507 33.6492 65.2007 33.6492 66.0257C33.6242 66.8757 34.3242 67.5757 35.1742 67.5507C35.9742 67.5257 36.6242 66.8507 36.6242 66.0257Z" fill="#021B1F"/>
<path d="M15.6497 73.5506C19.5747 73.5506 23.3497 73.5756 27.0997 73.5256C27.7247 73.5256 28.4247 73.2256 28.9497 72.8756C30.0247 72.1506 31.0247 71.2756 32.0247 70.4256C32.4747 70.0506 32.8497 69.9506 33.4247 70.2006C35.1997 70.9506 37.0997 70.5006 38.3747 69.1006C39.6247 67.7506 39.9247 65.8006 39.1497 64.1506C38.3747 62.5006 36.6747 61.5006 34.8247 61.5756C32.1997 61.7006 30.1497 64.2256 30.6747 66.8256C30.7997 67.4256 30.5747 67.6756 30.1997 68.0756C28.2747 70.0756 26.0247 70.9006 23.1747 70.6006C20.6997 70.3506 18.1997 70.5506 15.6497 70.5506C15.6497 67.0506 15.6497 63.6006 15.6497 60.0756C17.5997 60.0756 19.5247 60.0506 21.4497 60.1006C21.6997 60.1006 21.9997 60.5256 22.1497 60.8006C23.2247 62.6006 25.2997 63.4506 27.2997 62.8756C29.2497 62.3006 30.5747 60.5006 30.5497 58.4756C30.5247 56.4506 29.1247 54.7256 27.0997 54.2256C25.1747 53.7256 23.1247 54.5756 22.1747 56.3756C21.8747 56.9256 21.5747 57.1256 20.9747 57.1006C19.3247 57.0506 17.6747 57.0756 16.0247 57.0756C15.9247 57.0756 15.8497 57.0506 15.6747 57.0506C15.6747 54.1006 15.6747 51.1756 15.6747 48.1007C17.6247 48.1007 19.5997 48.0757 21.5997 48.1257C21.7997 48.1257 22.0247 48.5257 22.1497 48.7757C23.2247 50.6506 25.3247 51.5006 27.3497 50.9006C29.3247 50.3256 30.6497 48.4507 30.5747 46.3757C30.4747 44.3007 28.9247 42.5507 26.8247 42.1757C24.9747 41.8257 23.1247 42.7757 22.0997 44.5007C21.9497 44.7757 21.5997 45.0757 21.3247 45.0757C19.4497 45.1257 17.5997 45.1007 15.5997 45.1007C15.5997 43.3257 15.5997 41.5757 15.5997 39.8507C15.5997 38.1507 15.5997 36.4257 15.5997 34.6507C15.9747 34.6257 16.2747 34.6007 16.5747 34.6007C19.7997 34.6007 22.9997 34.5757 26.2247 34.6257C26.7247 34.6257 27.2747 34.9007 27.7247 35.1507C28.2247 35.4507 28.6247 35.9007 29.1247 36.2257C30.2247 36.9257 30.8247 37.6757 30.6497 39.2007C30.4247 41.0757 31.9247 42.8257 33.7497 43.3757C35.6497 43.9507 37.6497 43.2507 38.7747 41.6257C39.8747 40.0507 39.8247 37.9007 38.6497 36.3757C37.4247 34.7757 35.3997 34.1257 33.5497 34.8757C32.8247 35.1757 32.3247 35.1257 31.8247 34.5757C29.5247 32.0507 26.6997 31.1757 23.2747 31.5257C20.7747 31.7757 18.2247 31.5757 15.6247 31.5757C15.6247 29.2257 15.6247 26.9257 15.6247 24.5007C17.3747 25.6757 19.3247 25.6007 21.2497 25.6007C39.1247 25.6007 56.9997 25.6007 74.8747 25.6007C78.9997 25.6007 81.4497 28.0507 81.4497 32.1757C81.4497 35.1507 81.4497 38.1007 81.4497 41.0757C81.4497 41.3757 81.4497 41.6757 81.4497 42.0507C78.1747 42.2007 75.4747 43.4007 73.3997 45.8757C71.7497 47.8507 70.9747 50.1256 70.9747 52.6756C70.9747 56.9506 74.0747 62.5756 81.4247 63.1006C81.4247 63.3006 81.4497 63.5256 81.4497 63.7256C81.4497 66.9756 81.4747 70.2256 81.4497 73.4506C81.4247 76.8256 78.8247 79.4755 75.4747 79.4755C56.7997 79.5005 38.0997 79.4755 19.4247 79.4755C17.1997 79.4755 15.6247 77.8756 15.5997 75.6256C15.6497 75.0006 15.6497 74.3256 15.6497 73.5506ZM53.0497 67.5506C61.3247 67.5756 68.0247 60.9006 68.0497 52.6006C68.0747 44.4257 61.3747 37.6507 53.2497 37.6257C44.8997 37.6007 38.1247 44.2257 38.0997 52.4506C38.0747 60.8006 44.7247 67.5256 53.0497 67.5506Z" fill="url(#paint0_linear_82_9277)"/>
<path d="M90.4985 45.1257C90.4985 50.1257 90.4985 55.0007 90.4985 60.0007C90.1985 60.0257 89.8985 60.0507 89.5985 60.0507C86.9485 60.0507 84.2985 60.0507 81.6485 60.0507C77.3985 60.0257 74.0485 56.7257 74.0485 52.5757C74.0485 48.4007 77.3985 45.1007 81.6235 45.0757C84.2735 45.0757 86.9235 45.0757 89.5735 45.0757C89.8485 45.1007 90.1235 45.1257 90.4985 45.1257ZM86.0235 52.5507C86.0235 50.1007 83.9485 48.0757 81.4735 48.0757C79.0735 48.1007 77.0485 50.1757 77.0485 52.6007C77.0735 55.0257 79.0985 57.0507 81.5235 57.0757C83.9735 57.0757 86.0235 55.0257 86.0235 52.5507Z" fill="#00E0FF"/>
<path d="M90.5242 42.0482C88.4742 42.0482 86.5992 42.0482 84.5742 42.0482C84.5491 41.6982 84.5242 41.3732 84.5242 41.0482C84.5242 37.9232 84.5242 34.7982 84.5242 31.6982C84.4992 26.6232 80.5242 22.6482 75.4242 22.6482C56.8742 22.6482 38.2992 22.6482 19.7492 22.6482C17.7492 22.6482 16.4242 21.7732 15.8492 20.0732C15.0742 17.6731 16.7492 15.2731 19.2492 15.1481C19.4742 15.1481 19.6742 15.1481 19.8992 15.1481C38.8742 15.1481 57.8242 15.1731 76.7992 15.1231C83.7492 15.0981 89.6242 20.2732 90.3742 26.8232C90.4492 27.4482 90.5242 28.0482 90.5242 28.6732C90.5492 32.7482 90.5242 36.8482 90.5242 40.9232C90.5242 41.2732 90.5242 41.5982 90.5242 42.0482Z" fill="url(#paint1_linear_82_9277)"/>
<path d="M84.5984 63.1023C86.5734 63.1023 88.4734 63.1023 90.4985 63.1023C90.4985 63.6273 90.4985 64.1023 90.4985 64.6023C90.4484 66.5523 90.5235 68.5273 90.2735 70.4523C89.9485 72.9773 87.1484 75.1023 84.5734 74.9773C84.5984 71.0523 84.5984 67.1023 84.5984 63.1023Z" fill="url(#paint2_linear_82_9277)"/>
<path d="M36.6251 39.0759C36.6251 39.9009 35.9751 40.576 35.1751 40.576C34.3751 40.601 33.6751 39.9509 33.6501 39.1259C33.6251 38.2758 34.3001 37.5758 35.1501 37.5758C35.9501 37.6008 36.6001 38.2758 36.6251 39.0759Z" fill="url(#paint3_linear_82_9277)"/>
<path d="M27.6239 46.5751C27.6239 47.4001 26.9739 48.0751 26.1489 48.0751C25.2989 48.1001 24.5989 47.4001 24.6239 46.5501C24.6489 45.7251 25.3239 45.0751 26.1239 45.1001C26.9739 45.1001 27.6239 45.7501 27.6239 46.5751Z" fill="url(#paint4_linear_82_9277)"/>
<path d="M27.6242 58.601C27.5992 59.4261 26.9242 60.0761 26.0992 60.0511C25.2492 60.0261 24.5743 59.301 24.6243 58.476C24.6743 57.676 25.3742 57.0259 26.1742 57.0759C26.9992 57.1009 27.6492 57.801 27.6242 58.601Z" fill="url(#paint5_linear_82_9277)"/>
<path d="M36.6238 66.0235C36.6238 66.8485 35.9738 67.5235 35.1738 67.5235C34.3238 67.5485 33.6238 66.8485 33.6488 65.9985C33.6738 65.1734 34.3488 64.5234 35.1488 64.5234C35.9488 64.5484 36.5988 65.2234 36.6238 66.0235Z" fill="url(#paint6_linear_82_9277)"/>
<path d="M53.0498 67.5519C44.7248 67.5269 38.0748 60.802 38.1248 52.427C38.1498 44.2021 44.9248 37.5771 53.2748 37.6021C61.3999 37.6271 68.0999 44.4271 68.0749 52.577C68.0249 60.902 61.3249 67.5769 53.0498 67.5519ZM65.0749 52.627C65.0999 46.0521 59.7249 40.6021 53.1748 40.5771C46.5498 40.5521 41.1248 45.9271 41.1248 52.527C41.1248 59.102 46.4748 64.477 53.0498 64.527C59.5749 64.602 65.0499 59.177 65.0749 52.627Z" fill="#021B1F"/>
<path d="M86.0249 52.5507C86.0249 55.0257 83.9749 57.0757 81.525 57.0757C79.1 57.0757 77.075 55.0257 77.05 52.6007C77.025 50.1757 79.075 48.1007 81.475 48.0757C83.9499 48.0757 86.0249 50.1007 86.0249 52.5507ZM83.025 52.5507C83 51.7257 82.325 51.0757 81.525 51.0757C80.675 51.0757 80 51.8007 80.025 52.6507C80.075 53.4507 80.775 54.1007 81.575 54.0757C82.4 54.0507 83.0499 53.3507 83.025 52.5507Z" fill="#021B1F"/>
<path d="M65.0747 52.6247C65.0497 59.1746 59.5997 64.5746 53.0497 64.5496C46.4747 64.4996 41.0997 59.1246 41.1247 52.5497C41.1247 45.9497 46.5497 40.5747 53.1747 40.5997C59.6997 40.6247 65.0747 46.0747 65.0747 52.6247ZM60.5747 52.9997C60.5747 51.8747 60.5497 50.7497 60.5747 49.6247C60.5997 48.8497 60.2747 48.3247 59.6247 47.9497C57.6997 46.8497 55.7997 45.7497 53.8747 44.6247C53.2247 44.2497 52.5997 44.2247 51.9497 44.6247C50.0497 45.7497 48.1247 46.8497 46.1997 47.9247C45.5497 48.2997 45.1997 48.8247 45.2247 49.5997C45.2497 51.8247 45.2497 54.0246 45.2247 56.2496C45.2247 57.0246 45.5247 57.5496 46.1997 57.9246C48.1247 59.0246 50.0247 60.1246 51.9247 61.2496C52.5747 61.6496 53.1997 61.6496 53.8497 61.2496C55.7497 60.1246 57.6747 59.0246 59.5997 57.9496C60.2997 57.5496 60.5997 56.9996 60.5747 56.1746C60.5497 55.0996 60.5747 54.0496 60.5747 52.9997Z" fill="white"/>
<path d="M83.0233 52.5508C83.0483 53.3508 82.3983 54.0509 81.5733 54.0759C80.7733 54.1009 80.0733 53.4508 80.0233 52.6508C79.9733 51.8007 80.6733 51.0757 81.5233 51.0757C82.3483 51.0757 83.0233 51.7257 83.0233 52.5508Z" fill="url(#paint7_linear_82_9277)"/>
<path d="M60.5747 53.0008C60.5747 54.0508 60.5497 55.1258 60.5747 56.1758C60.5997 56.9758 60.2997 57.5508 59.5997 57.9508C57.6747 59.0508 55.7747 60.1508 53.8497 61.2508C53.1997 61.6508 52.5747 61.6258 51.9247 61.2508C50.0247 60.1258 48.0997 59.0258 46.1997 57.9258C45.5497 57.5508 45.2247 57.0258 45.2247 56.2508C45.2497 54.0258 45.2497 51.8257 45.2247 49.6007C45.2247 48.8257 45.5497 48.3007 46.1997 47.9257C48.1247 46.8257 50.0247 45.7257 51.9497 44.6257C52.5997 44.2257 53.2247 44.2507 53.8747 44.6257C55.7747 45.7507 57.6997 46.8507 59.6247 47.9507C60.2747 48.3257 60.5997 48.8507 60.5747 49.6257C60.5497 50.7507 60.5747 51.8757 60.5747 53.0008ZM49.5497 49.4757C50.6497 50.1257 51.5997 50.6757 52.5747 51.2257C52.7247 51.3007 53.0247 51.3257 53.1747 51.2507C54.1747 50.7007 55.1497 50.1257 56.2497 49.5007C55.1497 48.8507 54.1747 48.2757 53.1997 47.7507C53.0497 47.6757 52.8247 47.6257 52.6997 47.7007C51.6997 48.2257 50.6747 48.8257 49.5497 49.4757ZM48.2247 52.1757C48.2247 53.2508 48.1997 54.1758 48.2497 55.1258C48.2497 55.3508 48.3997 55.6758 48.5747 55.8008C49.4497 56.3508 50.3747 56.8758 51.3247 57.4008C51.7747 54.2008 51.7747 54.2008 49.1997 52.7007C48.8997 52.5507 48.6497 52.4257 48.2247 52.1757ZM54.3997 57.4758C55.4497 56.8758 56.3747 56.3258 57.2997 55.7758C57.4247 55.7008 57.5497 55.5008 57.5747 55.3508C57.5997 54.3508 57.5747 53.3508 57.5747 52.2007C56.5247 52.8007 55.5997 53.3258 54.7247 53.8758C54.5747 53.9758 54.4247 54.2008 54.4247 54.3758C54.3747 55.3258 54.3997 56.3258 54.3997 57.4758Z" fill="#021B1F"/>
<path d="M49.5489 49.4765C50.6739 48.8265 51.6739 48.2265 52.6989 47.6765C52.8239 47.6015 53.0739 47.6515 53.1989 47.7265C54.1739 48.2765 55.1239 48.8515 56.2489 49.4765C55.1489 50.1264 54.1739 50.7014 53.1739 51.2264C53.0239 51.3014 52.7489 51.3014 52.5739 51.2014C51.6239 50.6764 50.6489 50.1014 49.5489 49.4765Z" fill="url(#paint8_linear_82_9277)"/>
<path d="M48.2241 52.1773C48.6491 52.4023 48.8991 52.5523 49.1741 52.7023C51.7491 54.2023 51.7491 54.2023 51.2991 57.4024C50.3741 56.8524 49.4491 56.3524 48.5491 55.8024C48.3741 55.6774 48.2241 55.3524 48.2241 55.1274C48.1991 54.2023 48.2241 53.2523 48.2241 52.1773Z" fill="url(#paint9_linear_82_9277)"/>
<path d="M54.3993 57.4773C54.3993 56.3273 54.3743 55.3273 54.4243 54.3523C54.4243 54.1773 54.5743 53.9523 54.7243 53.8523C55.6243 53.3023 56.5244 52.8023 57.5744 52.1773C57.5744 53.3273 57.5744 54.3273 57.5744 55.3273C57.5744 55.4773 57.4494 55.6773 57.2994 55.7523C56.3744 56.3273 55.4493 56.8773 54.3993 57.4773Z" fill="url(#paint10_linear_82_9277)"/>
</g>
<defs>
<filter id="filter0_d_82_9277" x="-7" y="-12" width="120" height="120" filterUnits="userSpaceOnUse" color-interpolation-filters="sRGB">
<feFlood flood-opacity="0" result="BackgroundImageFix"/>
<feColorMatrix in="SourceAlpha" type="matrix" values="0 0 0 0 0 0 0 0 0 0 0 0 0 0 0 0 0 0 127 0" result="hardAlpha"/>
<feOffset/>
<feGaussianBlur stdDeviation="6"/>
<feColorMatrix type="matrix" values="0 0 0 0 0.0782986 0 0 0 0 0.348001 0 0 0 0 0.458333 0 0 0 0.3 0"/>
<feBlend mode="normal" in2="BackgroundImageFix" result="effect1_dropShadow_82_9277"/>
<feBlend mode="normal" in="SourceGraphic" in2="effect1_dropShadow_82_9277" result="shape"/>
</filter>
<linearGradient id="paint0_linear_82_9277" x1="48.5302" y1="24.5007" x2="48.5302" y2="79.4867" gradientUnits="userSpaceOnUse">
<stop stop-color="#00BED8"/>
<stop offset="1" stop-color="#008294"/>
</linearGradient>
<linearGradient id="paint1_linear_82_9277" x1="53.0968" y1="15.123" x2="53.0968" y2="74.9825" gradientUnits="userSpaceOnUse">
<stop stop-color="#00BED8"/>
<stop offset="1" stop-color="#008294"/>
</linearGradient>
<linearGradient id="paint2_linear_82_9277" x1="53.0968" y1="15.123" x2="53.0968" y2="74.9825" gradientUnits="userSpaceOnUse">
<stop stop-color="#00BED8"/>
<stop offset="1" stop-color="#008294"/>
</linearGradient>
<linearGradient id="paint3_linear_82_9277" x1="35.1373" y1="37.5758" x2="35.1373" y2="40.5767" gradientUnits="userSpaceOnUse">
<stop stop-color="#00BED8"/>
<stop offset="1" stop-color="#008294"/>
</linearGradient>
<linearGradient id="paint4_linear_82_9277" x1="26.1236" y1="45.0994" x2="26.1236" y2="48.0757" gradientUnits="userSpaceOnUse">
<stop stop-color="#00BED8"/>
<stop offset="1" stop-color="#008294"/>
</linearGradient>
<linearGradient id="paint5_linear_82_9277" x1="26.1233" y1="57.0732" x2="26.1233" y2="60.0518" gradientUnits="userSpaceOnUse">
<stop stop-color="#00BED8"/>
<stop offset="1" stop-color="#008294"/>
</linearGradient>
<linearGradient id="paint6_linear_82_9277" x1="35.136" y1="64.5234" x2="35.136" y2="67.5241" gradientUnits="userSpaceOnUse">
<stop stop-color="#00BED8"/>
<stop offset="1" stop-color="#008294"/>
</linearGradient>
<linearGradient id="paint7_linear_82_9277" x1="81.5224" y1="51.0757" x2="81.5224" y2="54.0766" gradientUnits="userSpaceOnUse">
<stop stop-color="#00BED8"/>
<stop offset="1" stop-color="#008294"/>
</linearGradient>
<linearGradient id="paint8_linear_82_9277" x1="52.8937" y1="47.6394" x2="52.8937" y2="57.4773" gradientUnits="userSpaceOnUse">
<stop stop-color="#00BED8"/>
<stop offset="1" stop-color="#008294"/>
</linearGradient>
<linearGradient id="paint9_linear_82_9277" x1="52.8937" y1="47.6394" x2="52.8937" y2="57.4773" gradientUnits="userSpaceOnUse">
<stop stop-color="#00BED8"/>
<stop offset="1" stop-color="#008294"/>
</linearGradient>
<linearGradient id="paint10_linear_82_9277" x1="52.8937" y1="47.6394" x2="52.8937" y2="57.4773" gradientUnits="userSpaceOnUse">
<stop stop-color="#00BED8"/>
<stop offset="1" stop-color="#008294"/>
</linearGradient>
</defs>
</svg>
