<svg width="90" height="90" viewBox="0 0 90 90" fill="none" xmlns="http://www.w3.org/2000/svg">
<path d="M73.6261 79.2004C74.3511 79.9004 75.0761 80.4754 75.6261 81.1754C76.5261 82.3754 77.6511 82.7254 79.0261 82.4754C79.3261 82.4254 79.6761 82.2004 79.8261 81.9504C80.9261 80.0254 82.9011 79.1254 84.9511 79.6504C86.9511 80.1754 88.3261 81.9254 88.3261 83.9504C88.3511 86.0254 86.9762 87.8004 84.9261 88.3254C82.8761 88.8504 80.9261 87.9504 79.8011 86.0004C79.6511 85.7504 79.2261 85.4504 79.0011 85.5004C76.5011 85.9254 74.6761 84.9004 73.2261 82.9754C72.6511 82.2254 71.9761 81.6004 71.3511 80.9254C55.2261 92.6754 34.0011 92.2754 18.5511 81.0004C17.4261 82.1254 16.2511 83.2504 15.1761 84.4504C14.4511 85.2754 13.6261 85.6504 12.5511 85.5004C12.3761 85.4754 12.1761 85.5254 12.0011 85.5004C10.9261 85.3754 10.1761 85.5754 9.52615 86.6754C8.50115 88.4004 6.27615 88.9254 4.40115 88.2004C2.55115 87.5004 1.40115 85.7254 1.50115 83.7254C1.60115 81.7504 3.02615 80.1004 5.02615 79.6254C6.90115 79.1754 8.97615 80.0254 9.87615 81.7754C10.2011 82.4004 10.5761 82.4504 11.1511 82.5254C12.3761 82.6504 13.2761 82.3004 14.0761 81.3254C14.7011 80.5504 15.4761 79.9254 16.2261 79.1754C5.95115 70.0754 0.426147 58.7754 0.426147 45.0754C0.426147 31.4004 5.90115 20.1004 16.2011 10.9754C15.1261 9.9004 14.1261 8.7754 12.9511 7.8254C12.5511 7.5004 11.7511 7.7254 11.1511 7.6254C10.4511 7.5254 10.1511 7.8504 9.82615 8.4254C8.82615 10.2004 6.72615 11.0004 4.75115 10.4504C2.80115 9.9004 1.47615 8.1004 1.50115 6.0504C1.52615 4.0504 2.90115 2.3254 4.82615 1.8004C6.80115 1.2754 8.92615 2.1004 9.85115 3.9004C10.1761 4.5254 10.5261 4.6254 11.1261 4.6504C14.7261 4.6754 13.5511 4.1754 16.2011 6.7504C16.9761 7.5004 17.7261 8.3254 18.4011 9.0254C36.1012 -2.3746 53.6761 -2.3996 71.4011 9.0004C72.4511 7.9254 73.6761 6.7504 74.8011 5.5254C75.4261 4.8504 76.1011 4.5004 77.0261 4.6254C77.2761 4.6504 77.5261 4.6004 77.7761 4.6254C78.8761 4.7504 79.6511 4.5504 80.3261 3.4254C81.3761 1.7004 83.5761 1.2004 85.4511 1.9254C87.3011 2.6504 88.4261 4.4254 88.3261 6.4004C88.2011 8.3754 86.7761 10.0004 84.7761 10.4754C82.9011 10.9254 80.8511 10.0504 79.9511 8.3004C79.6511 7.7504 79.3261 7.6254 78.7511 7.5754C77.4511 7.4504 76.5011 7.8254 75.6761 8.8504C75.0761 9.6004 74.3261 10.2004 73.6261 10.9004C83.9011 20.0254 89.4261 31.3504 89.4011 45.0504C89.4261 58.8004 83.9011 70.0754 73.6261 79.2004ZM62.3261 16.4004C63.2011 16.1254 64.1011 15.8254 64.9761 15.5504C57.7011 10.5254 49.8011 8.5004 41.1761 9.3754C35.2261 9.9754 29.7761 11.9754 24.8511 15.3254C24.8511 15.4254 24.8511 15.5254 24.8511 15.6254C25.7261 15.8504 26.5761 16.0754 27.4511 16.3004C28.5761 17.2254 29.1511 18.3504 28.7261 19.8254C28.3761 21.0504 27.2761 21.8754 26.0511 21.9254C24.6011 22.0004 23.6011 21.3254 22.9261 19.7504C22.9011 19.3254 22.7761 18.8504 22.8761 18.4504C23.0761 17.8004 22.7761 17.5004 22.3011 17.2004C4.07615 31.9504 5.00115 59.3004 22.5511 73.1004C22.6761 72.5754 22.7761 72.1504 22.8511 71.7254C22.9011 71.3004 22.9011 70.8504 22.9261 70.4254C23.4511 69.0754 24.3761 68.2754 25.8761 68.2754C27.1511 68.2754 28.0511 68.9254 28.5761 70.0754C29.1761 71.4004 28.7761 72.6004 27.4261 73.8504C26.5761 74.1004 25.7011 74.3254 24.6511 74.6254C37.7261 83.8004 54.9761 82.2254 65.1011 74.5754C64.1011 74.3004 63.2511 74.0754 62.4011 73.8504C60.9011 72.5004 60.5511 70.9254 61.4761 69.5754C62.1511 68.5504 63.1511 68.1004 64.3761 68.2504C65.7011 68.4004 66.4761 69.2004 66.9511 70.4004C66.9761 70.8254 67.1011 71.3004 67.0011 71.7004C66.8011 72.3504 67.1011 72.6504 67.5761 72.9504C85.8511 58.1504 84.8261 30.7754 67.2761 17.0254C67.1761 17.6254 67.1011 18.0754 67.0261 18.5254C66.9761 18.9254 66.9762 19.3254 66.9261 19.7254C66.4511 20.9754 65.6012 21.7504 64.2511 21.8504C62.9511 21.9504 61.7511 21.2004 61.2761 20.0254C60.7011 18.7504 61.0761 17.5254 62.3261 16.4004ZM73.5011 18.6504C80.3011 26.2254 83.8261 35.0004 83.8261 45.0754C83.8261 55.2004 80.2761 64.0004 73.5261 71.4754C74.1511 72.1254 74.7261 72.7254 75.3261 73.3254C91.1011 56.6004 89.1761 30.9004 75.2761 16.9004C74.7011 17.4754 74.1261 18.0254 73.5011 18.6504ZM16.3011 71.5004C9.55115 63.9754 6.00115 55.1754 6.00115 45.0504C6.00115 34.9504 9.57615 26.1504 16.2511 18.7254C15.6011 18.0754 15.0261 17.4754 14.4511 16.9004C-0.548852 32.8254 -0.0988522 57.9754 14.4761 73.2504C15.0761 72.7004 15.6761 72.1254 16.3011 71.5004ZM68.9761 11.2504C53.9761 0.2754 33.4762 1.6504 20.7261 11.4254C21.1761 11.8254 21.6511 12.2004 22.0511 12.6254C22.4511 13.0754 22.7511 13.1004 23.3011 12.7504C34.9511 5.3004 47.2261 4.1004 60.0511 9.2504C62.5511 10.2504 64.8511 11.7004 67.3261 12.9754C67.8011 12.5004 68.3761 11.9004 68.9761 11.2504ZM20.8261 78.8754C35.3011 89.5254 55.6011 88.9004 68.9011 78.9254C68.3511 78.3004 67.7761 77.6504 67.2011 77.0004C66.8511 77.2254 66.6011 77.3754 66.3511 77.5504C60.4011 81.4504 53.8761 83.6254 46.7761 83.9504C38.7512 84.3254 31.2761 82.3504 24.4261 78.1504C22.5011 76.9754 22.5011 76.9754 20.9761 78.6504C20.9011 78.7254 20.8761 78.8004 20.8261 78.8754ZM5.97615 7.6504C6.80115 7.6504 7.45115 7.0004 7.47615 6.1754C7.50115 5.3254 6.77615 4.6254 5.95115 4.6504C5.15115 4.6754 4.47615 5.3504 4.50115 6.1754C4.50115 6.9754 5.15115 7.6504 5.97615 7.6504ZM85.3511 6.1754C85.3761 5.3754 84.7261 4.6754 83.9011 4.6504C83.0511 4.6254 82.3511 5.3254 82.3511 6.1754C82.3511 7.0004 83.0261 7.6504 83.8511 7.6504C84.6761 7.6504 85.3261 7.0004 85.3511 6.1754ZM7.47615 83.9754C7.45115 83.1754 6.77615 82.5004 5.97615 82.5254C5.17615 82.5254 4.50115 83.2004 4.50115 84.0004C4.50115 84.8504 5.20115 85.5504 6.05115 85.5004C6.85115 85.4754 7.50115 84.8004 7.47615 83.9754ZM83.9011 82.5254C83.0761 82.5004 82.4011 83.1504 82.3761 83.9504C82.3261 84.8004 83.0261 85.5254 83.8761 85.5004C84.6761 85.5004 85.3511 84.8254 85.3761 84.0254C85.3511 83.2254 84.7011 82.5504 83.9011 82.5254ZM69.6511 15.0254C70.2761 15.5754 70.8011 16.0254 71.3011 16.4504C71.9511 15.8254 72.5511 15.2504 73.2011 14.6254C72.6261 14.1254 72.0761 13.6504 71.5761 13.2004C70.9011 13.8504 70.3011 14.4004 69.6511 15.0254ZM18.5511 73.7004C17.9011 74.3254 17.3261 74.9254 16.6761 75.5504C17.2261 76.0254 17.7511 76.5004 18.2011 76.8754C18.9011 76.2754 19.5261 75.7254 20.2011 75.1504C19.6011 74.6504 19.0761 74.1754 18.5511 73.7004ZM16.7011 14.5754C17.3511 15.2504 17.9011 15.8504 18.5011 16.5004C19.0511 16.0254 19.5761 15.5504 20.1511 15.0254C19.5261 14.4254 18.9261 13.8504 18.2761 13.2254C17.7511 13.6754 17.2261 14.1254 16.7011 14.5754ZM71.5761 76.9754C72.1261 76.5004 72.6511 76.0254 73.0761 75.6504C72.4511 75.0004 71.8511 74.4004 71.2511 73.7504C70.7761 74.1754 70.2511 74.6504 69.7011 75.1504C70.3011 75.7754 70.9011 76.3254 71.5761 76.9754Z" fill="#021B1F"/>
<path d="M27.4266 73.875C28.7766 72.625 29.1766 71.4 28.5766 70.1C28.0516 68.95 27.1516 68.3 25.8766 68.3C24.4016 68.3 23.4516 69.1 22.9266 70.45C22.5266 70.15 22.0766 69.9 21.7516 69.55C20.6266 68.35 19.4766 67.175 18.4516 65.875C13.8766 60.15 11.5266 53.575 11.2766 46.3C11.1766 43.8 11.4766 41.275 11.8266 38.8C12.2766 35.75 13.3516 32.85 14.7266 30.1C16.0516 27.45 17.6516 24.975 19.6766 22.8C20.6766 21.725 21.8266 20.775 22.9266 19.75C23.6016 21.3 24.6016 21.975 26.0516 21.925C27.3016 21.875 28.3766 21.05 28.7266 19.825C29.1516 18.35 28.5766 17.225 27.4516 16.3C29.6016 15.275 31.7266 14.125 33.9516 13.275C36.6266 12.25 39.4266 11.8 42.3016 11.55C45.1016 11.3 47.8766 11.5 50.6266 11.925C53.8516 12.425 56.9016 13.45 59.8016 14.875C60.6766 15.3 61.4766 15.9 62.3266 16.425C61.0516 17.55 60.7016 18.775 61.2266 20.075C61.7016 21.25 62.9266 22 64.2016 21.9C65.5516 21.8 66.4016 21 66.8766 19.775C67.1516 19.95 67.4766 20.1 67.7266 20.325C68.6516 21.25 69.5266 22.2 70.4266 23.175C73.3766 26.425 75.4516 30.225 76.8266 34.35C78.3266 38.775 78.9016 43.325 78.4516 48C78.0766 52 77.0766 55.8 75.4016 59.45C73.9516 62.55 72.0766 65.35 69.7766 67.85C68.9016 68.8 67.8516 69.6 66.9016 70.45C66.4516 69.25 65.6516 68.45 64.3266 68.3C63.1016 68.15 62.1266 68.625 61.4266 69.625C60.5016 70.975 60.8766 72.55 62.3516 73.9C50.7266 80.5 39.0766 80.45 27.4266 73.875ZM71.8766 45.075C71.8766 40.4 71.8516 35.725 71.9016 31.05C71.9016 29.925 71.5016 29.275 70.5516 28.725C62.4266 24.075 54.3016 19.375 46.2016 14.675C45.3266 14.175 44.6016 14.125 43.7016 14.65C35.5516 19.375 27.4016 24.075 19.2516 28.75C18.3266 29.275 17.9266 29.9 17.9516 31C17.9766 40.4 17.9766 49.775 17.9516 59.175C17.9516 60.25 18.3516 60.875 19.2516 61.4C27.3766 66.05 35.5016 70.75 43.6016 75.45C44.5266 75.975 45.2516 76.025 46.2016 75.475C54.3266 70.75 62.4766 66.05 70.6266 61.375C71.5016 60.875 71.9016 60.25 71.9016 59.2C71.8516 54.5 71.8766 49.775 71.8766 45.075Z" fill="url(#paint0_linear_82_9235)"/>
<path d="M22.9264 19.7501C21.8514 20.7501 20.6764 21.7001 19.6764 22.8001C17.6764 24.9751 16.0514 27.4501 14.7264 30.1001C13.3514 32.8751 12.2764 35.7501 11.8264 38.8001C11.4514 41.2751 11.1764 43.8001 11.2764 46.3001C11.5264 53.5751 13.9014 60.1501 18.4514 65.8751C19.4764 67.1501 20.6264 68.3501 21.7514 69.5501C22.0764 69.9001 22.5264 70.1501 22.9264 70.4501C22.9014 70.8751 22.9014 71.3251 22.8514 71.7501C22.8014 72.1751 22.6764 72.6001 22.5514 73.1251C5.00144 59.3251 4.07644 31.9751 22.3014 17.2251C22.7764 17.5001 23.0514 17.8001 22.8764 18.4751C22.7764 18.8501 22.9014 19.3001 22.9264 19.7501Z" fill="white"/>
<path d="M66.9258 70.426C67.9008 69.551 68.9258 68.776 69.8008 67.826C72.1008 65.3009 73.9758 62.5009 75.4258 59.4259C77.1259 55.7759 78.1009 52.0009 78.4759 47.9759C78.9259 43.2759 78.3259 38.7259 76.8508 34.3259C75.4508 30.2008 73.4008 26.4008 70.4508 23.1508C69.5758 22.1758 68.6758 21.2258 67.7508 20.3008C67.5258 20.0758 67.2008 19.9258 66.9008 19.7508C66.9258 19.3508 66.9508 18.9508 67.0008 18.5508C67.0508 18.1008 67.1508 17.6508 67.2508 17.0508C84.8009 30.8008 85.8009 58.1759 67.5508 72.976C67.0758 72.701 66.8007 72.401 66.9757 71.726C67.0758 71.326 66.9258 70.851 66.9258 70.426Z" fill="white"/>
<path d="M62.3273 16.4C61.4773 15.875 60.6773 15.275 59.8023 14.85C56.8773 13.425 53.8273 12.4 50.6273 11.9C47.8773 11.475 45.1023 11.275 42.3023 11.525C39.4273 11.775 36.6273 12.25 33.9523 13.25C31.7273 14.1 29.6273 15.25 27.4523 16.275C26.5773 16.05 25.7273 15.825 24.8523 15.6C24.8523 15.5 24.8523 15.4 24.8523 15.3C29.7773 11.95 35.2273 9.95001 41.1773 9.35001C49.8023 8.47501 57.7023 10.5 64.9773 15.525C64.1023 15.825 63.2273 16.1 62.3273 16.4Z" fill="white"/>
<path d="M27.4254 73.8764C39.0754 80.4515 50.7254 80.5015 62.3754 73.8764C63.2254 74.1014 64.1004 74.3514 65.0754 74.6014C54.9504 82.2516 37.7004 83.8266 24.6254 74.6514C25.7004 74.3764 26.5754 74.1264 27.4254 73.8764Z" fill="white"/>
<path d="M5.97649 7.65009C5.1765 7.65009 4.5015 6.97508 4.4765 6.17508C4.4765 5.37507 5.1265 4.67506 5.92649 4.65006C6.77649 4.62506 7.47648 5.32507 7.45148 6.17508C7.45148 7.00008 6.77649 7.65009 5.97649 7.65009Z" fill="url(#paint1_linear_82_9235)"/>
<path d="M85.352 6.17508C85.327 7.00008 84.677 7.65009 83.8519 7.65009C83.0269 7.65009 82.3769 7.00008 82.3519 6.17508C82.3519 5.32507 83.0519 4.62506 83.902 4.65006C84.727 4.67506 85.377 5.37507 85.352 6.17508Z" fill="url(#paint2_linear_82_9235)"/>
<path d="M7.4765 83.9748C7.5015 84.7747 6.8515 85.4746 6.0265 85.4996C5.1765 85.5246 4.4765 84.8497 4.4765 83.9997C4.4765 83.1998 5.1515 82.5249 5.9515 82.5249C6.7765 82.5249 7.4515 83.1748 7.4765 83.9748Z" fill="url(#paint3_linear_82_9235)"/>
<path d="M83.9014 82.5271C84.7014 82.5521 85.3764 83.2271 85.3514 84.0272C85.3514 84.8522 84.6764 85.5022 83.8514 85.5022C83.0014 85.5022 82.3015 84.7772 82.3515 83.9521C82.4015 83.1521 83.0765 82.5021 83.9014 82.5271Z" fill="url(#paint4_linear_82_9235)"/>
<path d="M73.5013 18.6513C74.1263 18.0263 74.7013 17.4763 75.3013 16.9013C89.2012 30.9013 91.1262 56.5763 75.3513 73.3263C74.7763 72.7263 74.2013 72.1263 73.5513 71.4763C80.2763 63.9763 83.8512 55.2013 83.8512 45.0763C83.8262 35.0013 80.3013 26.2263 73.5013 18.6513Z" fill="url(#paint5_linear_82_9235)"/>
<path d="M16.3012 71.501C15.6512 72.126 15.0512 72.701 14.4512 73.276C-0.0988197 57.9761 -0.548821 32.8262 14.4262 16.9262C15.0012 17.5012 15.6012 18.1012 16.2512 18.7512C9.57618 26.1512 6.00118 34.9512 6.00118 45.0511C6.00118 55.1761 9.55118 63.9761 16.3012 71.501Z" fill="url(#paint6_linear_82_9235)"/>
<path d="M68.9773 11.2496C68.3773 11.8996 67.8023 12.4996 67.3273 12.9996C64.8523 11.7246 62.5523 10.2746 60.0523 9.27464C47.2273 4.09964 34.9523 5.29964 23.3023 12.7746C22.7773 13.1246 22.4773 13.0996 22.0523 12.6496C21.6523 12.2246 21.1773 11.8496 20.7273 11.4496C33.4773 1.64964 53.9773 0.274644 68.9773 11.2496Z" fill="url(#paint7_linear_82_9235)"/>
<path d="M20.827 78.8759C20.877 78.8009 20.902 78.7009 20.952 78.6509C22.477 76.9759 22.477 76.9759 24.402 78.1509C31.252 82.3759 38.727 84.3259 46.7521 83.9509C53.8521 83.6259 60.3771 81.4509 66.3271 77.5509C66.5771 77.3759 66.8521 77.2259 67.1771 77.0009C67.7521 77.6509 68.3271 78.3009 68.8771 78.9259C55.6021 88.9009 35.302 89.5259 20.827 78.8759Z" fill="url(#paint8_linear_82_9235)"/>
<path d="M69.6504 15.0246C70.3004 14.3996 70.8754 13.8496 71.5753 13.2246C72.0753 13.6496 72.6254 14.1246 73.2003 14.6496C72.5503 15.2746 71.9504 15.8496 71.3004 16.4746C70.8004 16.0246 70.2754 15.5746 69.6504 15.0246Z" fill="url(#paint9_linear_82_9235)"/>
<path d="M18.5507 73.7006C19.0757 74.1506 19.6007 74.6256 20.2007 75.1756C19.5257 75.7506 18.9007 76.3006 18.2007 76.9006C17.7507 76.5256 17.2257 76.0506 16.6757 75.5756C17.3007 74.9256 17.9007 74.3506 18.5507 73.7006Z" fill="url(#paint10_linear_82_9235)"/>
<path d="M16.702 14.5746C17.202 14.1246 17.752 13.6746 18.277 13.2246C18.927 13.8496 19.527 14.4246 20.152 15.0246C19.577 15.5496 19.052 15.9996 18.502 16.4996C17.927 15.8496 17.352 15.2496 16.702 14.5746Z" fill="url(#paint11_linear_82_9235)"/>
<path d="M71.5766 76.9753C70.9016 76.3253 70.3266 75.7753 69.6766 75.1753C70.2266 74.6753 70.7516 74.2003 71.2266 73.7753C71.8516 74.4253 72.4266 75.0253 73.0516 75.6753C72.6516 76.0253 72.1016 76.4753 71.5766 76.9753Z" fill="url(#paint12_linear_82_9235)"/>
<path d="M71.876 45.0755C71.876 49.7755 71.851 54.5005 71.901 59.2005C71.901 60.2505 71.526 60.8755 70.626 61.3755C62.4761 66.0505 54.3261 70.7505 46.2011 75.4755C45.2761 76.0255 44.5261 75.9755 43.6011 75.4505C35.5012 70.7505 27.3762 66.0505 19.2512 61.4005C18.3262 60.8755 17.9262 60.2255 17.9512 59.1755C17.9762 49.7755 17.9762 40.4005 17.9512 31.0005C17.9512 29.9255 18.3512 29.3005 19.2512 28.7505C27.4012 24.0755 35.5512 19.3755 43.6761 14.6505C44.5761 14.1255 45.3011 14.1505 46.1761 14.6755C54.2761 19.3755 62.4011 24.0755 70.5261 28.7255C71.476 29.2755 71.901 29.9255 71.876 31.0505C71.851 35.7255 71.876 40.4005 71.876 45.0755ZM20.9512 45.0005C20.9512 49.3755 20.9762 53.7255 20.9262 58.1005C20.9262 58.7005 21.1012 59.0255 21.6262 59.3505C29.1262 63.6505 36.6262 67.9755 44.1261 72.3255C44.7261 72.6755 45.1511 72.6505 45.7261 72.3005C53.1761 67.9755 60.6511 63.6505 68.1511 59.3755C68.7261 59.0505 68.8761 58.6755 68.8761 58.0505C68.8511 49.4255 68.8511 40.7755 68.8761 32.1505C68.8761 31.5255 68.7011 31.1755 68.1261 30.8255C60.6511 26.5255 53.1761 22.2255 45.7261 17.9005C45.1511 17.5505 44.7261 17.5505 44.1261 17.8755C36.6512 22.2255 29.1512 26.5505 21.6262 30.8505C21.0762 31.1505 20.9262 31.5005 20.9262 32.1005C20.9762 36.3755 20.9512 40.6755 20.9512 45.0005Z" fill="white"/>
<path d="M20.9521 45.0003C20.9521 40.7003 20.9771 36.4003 20.9271 32.1003C20.9271 31.5003 21.1021 31.1753 21.6271 30.8503C29.1271 26.5503 36.6272 22.2003 44.1272 17.8753C44.7272 17.5253 45.1522 17.5503 45.7272 17.9003C53.1772 22.2253 60.6523 26.5503 68.1273 30.8253C68.7023 31.1503 68.8773 31.5003 68.8773 32.1503C68.8523 40.7753 68.8523 49.4253 68.8773 58.0503C68.8773 58.6753 68.7273 59.0253 68.1523 59.3753C60.6773 63.6503 53.2022 67.9753 45.7272 72.3003C45.1522 72.6503 44.7272 72.6753 44.1272 72.3253C36.6522 67.9753 29.1521 63.6503 21.6271 59.3503C21.1021 59.0503 20.9021 58.7253 20.9271 58.1003C20.9771 53.7253 20.9521 49.3503 20.9521 45.0003ZM32.9022 51.4503C32.8022 51.4753 32.7022 51.4753 32.6022 51.5003C31.8522 49.0503 31.0772 46.6003 30.3272 44.1503C29.2021 40.5003 28.0771 36.8503 26.9271 33.1753C26.6521 32.2753 25.9521 31.8253 25.1771 32.0003C24.3271 32.2003 23.9271 32.7753 23.9521 33.6253C23.9521 33.7253 23.9521 33.8003 23.9521 33.9003C23.9521 41.5753 23.9521 49.2503 23.9521 56.9003C23.9521 57.1253 23.9271 57.3503 23.9771 57.5503C24.1271 58.3503 24.6021 58.8253 25.4271 58.8753C26.2021 58.9253 26.8521 58.3253 26.9521 57.5253C26.9771 57.2253 26.9771 56.9003 26.9771 56.6003C26.9771 52.3753 26.9771 48.1253 26.9771 43.9003C27.2021 44.1503 27.3021 44.4253 27.3771 44.7003C29.1771 50.5003 30.9772 56.2753 32.7772 62.0753C33.0772 63.0253 33.6772 63.4753 34.4522 63.3753C35.2772 63.2753 35.7772 62.6503 35.7772 61.6253C35.8522 50.8503 35.9022 40.0503 35.9522 29.2753C35.9522 28.1503 35.4022 27.5003 34.5022 27.4753C33.5522 27.4503 32.9772 28.1253 32.9522 29.2753C32.9272 31.8253 32.9272 34.4003 32.9272 36.9503C32.9022 41.8003 32.9022 46.6253 32.9022 51.4503ZM41.9272 43.5753C41.9272 38.9753 41.9272 34.5253 41.9272 30.0503C41.9272 28.9753 41.6272 27.6753 42.1022 26.8503C42.5772 26.0253 43.8272 25.6003 44.7772 25.0753C45.0772 24.9003 45.6022 24.9003 45.9272 25.0503C47.2772 25.7003 48.5772 26.4503 49.9022 27.1503C50.8772 27.6753 51.7272 27.5003 52.1772 26.7003C52.6272 25.9003 52.3272 25.0753 51.3522 24.5253C49.6522 23.6003 47.9522 22.7003 46.2522 21.7753C45.5522 21.3753 44.9022 21.4253 44.2272 21.8503C42.9022 22.7003 41.6022 23.5253 40.2522 24.2753C39.2522 24.8253 38.9022 25.5753 38.9022 26.7003C38.9272 39.1753 38.9272 51.6503 38.9272 64.1253C38.9272 64.4253 38.9022 64.7503 38.9522 65.0503C39.1022 65.8503 39.6022 66.3503 40.4272 66.3503C41.2522 66.3503 41.7522 65.8753 41.9022 65.0503C41.9522 64.7753 41.9272 64.5003 41.9272 64.2003C41.9272 58.6503 41.9272 53.1003 41.9272 47.5503C41.9272 47.2253 41.9272 46.9003 41.9272 46.5253C42.4272 46.5253 42.8022 46.5253 43.1522 46.5253C45.2022 46.5253 47.2772 46.5503 49.3272 46.5253C50.2022 46.5253 50.8022 45.9753 50.8772 45.2003C50.9772 44.4753 50.4772 43.7503 49.7522 43.5753C49.4522 43.5003 49.1272 43.5253 48.8272 43.5253C46.5772 43.5753 44.3022 43.5753 41.9272 43.5753ZM61.7773 33.5753C62.5773 34.0003 63.2523 34.4003 63.9523 34.7253C64.8773 35.1753 65.7023 34.9503 66.1023 34.1503C66.5023 33.3753 66.2523 32.5753 65.3773 32.1003C62.4773 30.5253 59.5773 28.9503 56.6523 27.4003C55.7522 26.9253 54.9022 27.1503 54.4772 27.9253C54.0272 28.7253 54.3522 29.5503 55.3022 30.0753C56.1022 30.5003 56.8773 31.0003 57.7023 31.3503C58.5273 31.7003 58.8023 32.2003 58.8023 33.1003C58.7523 41.4503 58.7773 49.8253 58.7773 58.1753C58.7773 58.4753 58.7523 58.8003 58.8023 59.1003C58.9523 59.9003 59.4523 60.4003 60.2773 60.4003C61.1023 60.4003 61.6023 59.9253 61.7523 59.1003C61.8023 58.8003 61.7773 58.4753 61.7773 58.1753C61.7773 50.3503 61.7773 42.5253 61.7773 34.7003C61.7773 34.3753 61.7773 34.0503 61.7773 33.5753Z" fill="url(#paint13_linear_82_9235)"/>
<path d="M32.9016 51.4491C32.9016 46.6241 32.9016 41.7991 32.9016 36.9491C32.9016 34.3992 32.9266 31.8242 32.9266 29.2742C32.9266 28.1242 33.5266 27.4242 34.4766 27.4742C35.3766 27.4992 35.9266 28.1742 35.9266 29.2742C35.8766 40.0491 35.8016 50.8491 35.7516 61.624C35.7516 62.649 35.2516 63.274 34.4266 63.374C33.6516 63.474 33.0516 62.999 32.7516 62.074C30.9516 56.274 29.1516 50.4991 27.3516 44.6991C27.2766 44.4241 27.1516 44.1491 26.9516 43.8991C26.9516 48.1241 26.9516 52.3741 26.9516 56.599C26.9516 56.899 26.9766 57.224 26.9266 57.524C26.8266 58.324 26.1766 58.924 25.4016 58.874C24.5766 58.824 24.1016 58.349 23.9516 57.549C23.9266 57.324 23.9266 57.124 23.9266 56.899C23.9266 49.2241 23.9266 41.5491 23.9266 33.8992C23.9266 33.7992 23.9266 33.7242 23.9266 33.6242C23.9266 32.7742 24.3016 32.1742 25.1516 31.9992C25.9266 31.8242 26.6266 32.2742 26.9016 33.1742C28.0516 36.8241 29.1766 40.4741 30.3016 44.1491C31.0516 46.5991 31.8266 49.0491 32.5766 51.4991C32.7016 51.4991 32.8016 51.4741 32.9016 51.4491Z" fill="white"/>
<path d="M41.9265 43.5759C44.3015 43.5759 46.5765 43.5759 48.8515 43.5759C49.1515 43.5759 49.4765 43.5509 49.7765 43.6259C50.5015 43.8009 51.0015 44.5009 50.9015 45.2509C50.8015 46.0259 50.2015 46.5509 49.3515 46.5759C47.3015 46.6009 45.2265 46.5759 43.1765 46.5759C42.8015 46.5759 42.4265 46.5759 41.9515 46.5759C41.9515 46.9509 41.9515 47.2759 41.9515 47.6009C41.9515 53.1509 41.9515 58.7009 41.9515 64.2509C41.9515 64.5259 41.9765 64.8259 41.9265 65.1009C41.7765 65.9009 41.2766 66.4009 40.4516 66.4009C39.6266 66.4009 39.1266 65.9009 38.9766 65.1009C38.9266 64.8009 38.9516 64.4759 38.9516 64.1759C38.9516 51.7009 38.9516 39.2259 38.9266 26.7509C38.9266 25.6259 39.2766 24.8759 40.2766 24.3259C41.6515 23.5759 42.9515 22.7259 44.2515 21.9009C44.9265 21.4759 45.5515 21.4259 46.2765 21.8259C47.9765 22.7509 49.6765 23.6509 51.3764 24.5759C52.3514 25.1009 52.6514 25.9509 52.2014 26.7509C51.7514 27.5259 50.9015 27.7009 49.9265 27.2009C48.6015 26.5009 47.3015 25.7509 45.9515 25.1009C45.6265 24.9509 45.1015 24.9759 44.8015 25.1259C43.8515 25.6259 42.6015 26.0509 42.1265 26.9009C41.6515 27.7259 41.9515 29.0259 41.9515 30.1009C41.9265 34.5259 41.9265 38.9759 41.9265 43.5759Z" fill="white"/>
<path d="M61.7755 33.5752C61.7755 34.0502 61.7755 34.3752 61.7755 34.7252C61.7755 42.5503 61.7755 50.3753 61.7755 58.2004C61.7755 58.5004 61.8005 58.8254 61.7505 59.1254C61.6005 59.9254 61.1005 60.4254 60.2755 60.4254C59.4505 60.4254 58.9505 59.9254 58.8005 59.1254C58.7505 58.8254 58.7756 58.5004 58.7756 58.2004C58.7756 49.8503 58.7505 41.4753 58.8005 33.1252C58.8005 32.2002 58.5256 31.7252 57.7006 31.3752C56.8756 31.0252 56.1006 30.5502 55.3006 30.1002C54.3256 29.5752 54.0256 28.7502 54.4756 27.9502C54.9006 27.1752 55.7506 26.9502 56.6506 27.4252C59.5755 28.9752 62.4755 30.5502 65.3755 32.1252C66.2505 32.6002 66.5005 33.4002 66.1005 34.1752C65.6755 34.9752 64.8505 35.2002 63.9505 34.7502C63.2505 34.3752 62.5755 34.0002 61.7755 33.5752Z" fill="white"/>
<defs>
<linearGradient id="paint0_linear_82_9235" x1="44.929" y1="11.4404" x2="44.929" y2="78.8282" gradientUnits="userSpaceOnUse">
<stop stop-color="#00BED8"/>
<stop offset="1" stop-color="#008294"/>
</linearGradient>
<linearGradient id="paint1_linear_82_9235" x1="5.96432" y1="4.64941" x2="5.96432" y2="7.65009" gradientUnits="userSpaceOnUse">
<stop stop-color="#00BED8"/>
<stop offset="1" stop-color="#008294"/>
</linearGradient>
<linearGradient id="paint2_linear_82_9235" x1="83.8523" y1="4.64941" x2="83.8523" y2="7.65009" gradientUnits="userSpaceOnUse">
<stop stop-color="#00BED8"/>
<stop offset="1" stop-color="#008294"/>
</linearGradient>
<linearGradient id="paint3_linear_82_9235" x1="5.97685" y1="82.5249" x2="5.97685" y2="85.5003" gradientUnits="userSpaceOnUse">
<stop stop-color="#00BED8"/>
<stop offset="1" stop-color="#008294"/>
</linearGradient>
<linearGradient id="paint4_linear_82_9235" x1="83.8505" y1="82.5264" x2="83.8505" y2="85.5022" gradientUnits="userSpaceOnUse">
<stop stop-color="#00BED8"/>
<stop offset="1" stop-color="#008294"/>
</linearGradient>
<linearGradient id="paint5_linear_82_9235" x1="44.9164" y1="3.54785" x2="44.9164" y2="86.6367" gradientUnits="userSpaceOnUse">
<stop stop-color="#00BED8"/>
<stop offset="1" stop-color="#008294"/>
</linearGradient>
<linearGradient id="paint6_linear_82_9235" x1="44.9164" y1="3.54785" x2="44.9164" y2="86.6367" gradientUnits="userSpaceOnUse">
<stop stop-color="#00BED8"/>
<stop offset="1" stop-color="#008294"/>
</linearGradient>
<linearGradient id="paint7_linear_82_9235" x1="44.9164" y1="3.54785" x2="44.9164" y2="86.6367" gradientUnits="userSpaceOnUse">
<stop stop-color="#00BED8"/>
<stop offset="1" stop-color="#008294"/>
</linearGradient>
<linearGradient id="paint8_linear_82_9235" x1="44.9164" y1="3.54785" x2="44.9164" y2="86.6367" gradientUnits="userSpaceOnUse">
<stop stop-color="#00BED8"/>
<stop offset="1" stop-color="#008294"/>
</linearGradient>
<linearGradient id="paint9_linear_82_9235" x1="44.9164" y1="3.54785" x2="44.9164" y2="86.6367" gradientUnits="userSpaceOnUse">
<stop stop-color="#00BED8"/>
<stop offset="1" stop-color="#008294"/>
</linearGradient>
<linearGradient id="paint10_linear_82_9235" x1="44.9164" y1="3.54785" x2="44.9164" y2="86.6367" gradientUnits="userSpaceOnUse">
<stop stop-color="#00BED8"/>
<stop offset="1" stop-color="#008294"/>
</linearGradient>
<linearGradient id="paint11_linear_82_9235" x1="44.9164" y1="3.54785" x2="44.9164" y2="86.6367" gradientUnits="userSpaceOnUse">
<stop stop-color="#00BED8"/>
<stop offset="1" stop-color="#008294"/>
</linearGradient>
<linearGradient id="paint12_linear_82_9235" x1="44.9164" y1="3.54785" x2="44.9164" y2="86.6367" gradientUnits="userSpaceOnUse">
<stop stop-color="#00BED8"/>
<stop offset="1" stop-color="#008294"/>
</linearGradient>
<linearGradient id="paint13_linear_82_9235" x1="44.9012" y1="17.625" x2="44.9012" y2="72.5757" gradientUnits="userSpaceOnUse">
<stop stop-color="#00BED8"/>
<stop offset="1" stop-color="#008294"/>
</linearGradient>
</defs>
</svg>
