<svg width="91" height="87" viewBox="0 0 91 87" fill="none" xmlns="http://www.w3.org/2000/svg">
<path d="M24.1492 15.0744C24.1492 12.3244 24.1492 9.59941 24.1492 6.89941C24.1492 2.84941 26.8492 0.149414 30.8742 0.149414C40.3492 0.149414 49.8492 0.149414 59.3242 0.149414C63.3742 0.149414 66.0492 2.84941 66.0742 6.89941C66.0742 9.59941 66.0742 12.3244 66.0742 15.1244C66.4492 15.1244 66.7742 15.1244 67.1242 15.1244C72.8742 15.1244 78.5992 15.1244 84.3492 15.1244C87.8992 15.1244 90.0492 17.2994 90.0492 20.8494C90.0492 40.9994 90.0492 61.1494 90.0492 81.2994C90.0492 84.8494 87.8742 86.9994 84.3492 86.9994C58.1992 86.9994 32.0742 86.9994 5.92424 86.9994C2.37424 86.9994 0.224243 84.8244 0.224243 81.2994C0.224243 61.1494 0.224243 40.9994 0.224243 20.8494C0.224243 17.2994 2.37424 15.1494 5.92424 15.1244C11.9242 15.1244 17.8992 15.1244 23.8992 15.1244C23.8992 15.1244 23.9742 15.1244 24.1492 15.0744ZM49.6492 36.0994C50.1492 36.0994 50.5242 36.0994 50.8742 36.0994C57.2492 36.0994 63.5992 36.0994 69.9742 36.0994C71.6242 36.0994 72.0492 36.5244 72.0492 38.2244C72.0492 41.3994 72.0742 44.5994 72.0242 47.7744C71.9992 48.5494 72.2742 48.8244 72.9742 49.0494C80.4242 51.5494 85.0992 59.3744 83.8242 67.1244C82.4992 75.1744 75.6492 81.0244 67.4742 81.0244C50.6992 81.0494 33.8992 81.0244 17.1242 81.0244C15.6492 81.0244 15.1492 80.5494 15.1492 79.0744C15.1492 65.3994 15.1492 51.7494 15.1492 38.0744C15.1492 36.5494 15.6242 36.0994 17.1742 36.0994C24.5992 36.0994 32.0242 36.0994 39.4492 36.0994C39.7992 36.0994 40.1742 36.0994 40.5492 36.0994C40.5492 34.7244 40.5492 33.4994 40.5492 32.1994C28.0992 29.6244 15.6992 27.0494 3.17424 24.4744C3.17424 24.9244 3.17424 25.2744 3.17424 25.5994C3.17424 44.1244 3.17424 62.6494 3.17424 81.1744C3.17424 83.2244 3.94924 83.9994 5.99924 83.9994C32.0742 83.9994 58.1492 83.9994 84.2492 83.9994C86.2492 83.9994 87.0492 83.1994 87.0492 81.2244C87.0492 62.6744 87.0492 44.0994 87.0492 25.5494C87.0492 25.2244 87.0492 24.8744 87.0492 24.4494C74.4992 27.0494 62.0992 29.6244 49.6742 32.1994C49.6492 33.5244 49.6492 34.7494 49.6492 36.0994ZM86.9492 21.4244C87.2492 19.2494 86.3992 18.1244 84.4242 18.1244C58.2242 18.1244 31.9992 18.1244 5.79924 18.0994C4.17424 18.0994 2.67424 19.4744 3.32424 21.4244C15.6492 23.9744 27.9742 26.5244 40.2992 29.0744C40.8492 25.9494 42.3992 24.2494 44.6492 24.1244C45.8242 24.0494 46.8992 24.2994 47.8492 24.9744C49.1992 25.9494 49.7742 27.3494 49.8742 29.0994C62.2742 26.5244 74.5742 23.9744 86.9492 21.4244ZM24.1742 66.3244C27.3492 64.3494 30.3742 62.4494 33.4242 60.5494C34.5492 59.8494 34.9242 59.8744 35.9242 60.6744C38.1742 62.4744 40.4242 64.2494 42.6242 66.0494C43.0742 66.3994 43.3492 66.4244 43.8242 66.0744C46.2242 64.2994 48.6492 62.5494 51.0742 60.7744C51.3492 60.5744 51.6242 60.2494 51.7242 59.9244C53.4992 54.4244 57.0992 50.7244 62.5742 48.7994C62.7992 48.7244 63.0492 48.3994 63.0742 48.1744C63.1242 47.1494 63.0992 46.1244 63.0992 45.0994C50.0992 45.0994 37.1492 45.0994 24.1992 45.0994C24.1742 52.1744 24.1742 59.1744 24.1742 66.3244ZM54.0992 64.5744C54.0992 71.9994 60.1992 78.0244 67.6492 78.0244C74.9742 77.9994 81.0242 71.9244 81.0492 64.5994C81.0742 57.1494 74.9742 51.0494 67.5742 51.0744C60.0992 51.0994 54.0742 57.1494 54.0992 64.5744ZM33.1492 15.0744C41.1742 15.0744 49.0992 15.0744 57.0242 15.0744C57.0242 13.0744 57.0242 11.1244 57.0242 9.19941C49.0242 9.19941 41.0992 9.19941 33.1492 9.19941C33.1492 11.1744 33.1492 13.0994 33.1492 15.0744ZM66.9242 39.1494C51.2992 39.1494 35.8742 39.1494 20.2992 39.1494C21.2742 40.0994 22.1242 40.9744 22.9992 41.7994C23.1992 41.9744 23.5492 42.0744 23.8242 42.0744C37.0242 42.0994 50.1992 42.0994 63.3992 42.0744C63.6742 42.0744 64.0242 41.9744 64.2242 41.7994C65.0992 40.9744 65.9492 40.0994 66.9242 39.1494ZM20.2742 77.9494C32.9242 77.9494 45.3992 77.9494 57.7992 77.9494C56.8992 77.0994 56.0492 76.2244 55.1492 75.4244C54.8992 75.1994 54.4992 75.0494 54.1742 75.0494C44.0742 75.0244 33.9742 75.0244 23.8742 75.0494C23.5992 75.0494 23.2242 75.0994 23.0242 75.2994C22.1242 76.0994 21.2742 76.9744 20.2742 77.9494ZM18.1742 75.9244C19.1742 74.8994 20.0242 74.0744 20.7992 73.1994C20.9992 72.9744 21.1242 72.5994 21.1242 72.2994C21.1492 63.1244 21.1492 53.9494 21.1242 44.7994C21.1242 44.5744 21.1242 44.2494 20.9742 44.0994C20.1242 43.1494 19.2242 42.2244 18.3492 41.2744C18.2992 41.3244 18.2242 41.3994 18.1742 41.4494C18.1742 52.8494 18.1742 64.2494 18.1742 75.9244ZM40.6992 68.3494C38.6992 66.7244 36.8242 65.1994 34.8992 63.7244C34.6992 63.5744 34.1492 63.6494 33.8742 63.8244C31.0242 65.5494 28.1992 67.3244 25.3742 69.0994C24.0242 69.9494 23.8492 70.3244 24.2992 72.0494C27.9492 72.0494 31.6242 72.0494 35.2992 72.0494C35.4992 72.0494 35.7242 71.9494 35.8992 71.8494C37.4742 70.6994 39.0242 69.5494 40.6992 68.3494ZM33.1742 6.07441C41.1742 6.07441 49.0992 6.07441 57.0242 6.07441C57.0242 5.07441 57.0242 4.14941 57.0242 3.22441C49.0492 3.22441 41.1242 3.22441 33.1742 3.22441C33.1742 4.19941 33.1742 5.07441 33.1742 6.07441ZM50.8242 64.6994C47.5992 67.0494 44.2742 69.4744 40.8492 71.9744C44.9492 71.9744 48.8492 71.9744 52.5742 71.9744C51.9742 69.5494 51.3992 67.1494 50.8242 64.6994ZM30.0992 3.22441C28.2242 3.57441 27.1492 4.82441 27.1242 6.64941C27.0992 8.44941 27.1242 10.2494 27.1242 12.0494C27.1242 13.0744 27.1242 14.0744 27.1242 15.0744C28.1742 15.0744 29.1242 15.0744 30.0992 15.0744C30.0992 11.1244 30.0992 7.19941 30.0992 3.22441ZM60.1242 3.19941C60.1242 7.19941 60.1242 11.1244 60.1242 15.0744C61.1242 15.0744 62.0742 15.0744 63.0742 15.0744C63.0742 12.2494 63.0742 9.44941 63.0742 6.64941C63.0742 4.82441 62.0242 3.62441 60.1242 3.19941ZM69.0742 41.1744C68.0242 42.2494 67.1492 43.1244 66.2992 43.9994C66.1742 44.1244 66.0992 44.3244 66.0992 44.4994C66.0742 45.6744 66.0992 46.8494 66.0992 48.0494C67.1242 48.0494 68.0742 48.0494 69.0242 48.0494C69.0492 47.9244 69.0742 47.8244 69.0742 47.7494C69.0742 45.6494 69.0742 43.5494 69.0742 41.1744ZM45.0992 27.1244C44.1992 27.1244 43.4492 27.8994 43.4242 28.7994C43.4242 29.6994 44.1742 30.4744 45.0742 30.4994C45.9992 30.5244 46.7992 29.6994 46.7992 28.7744C46.7742 27.8744 45.9992 27.0994 45.0992 27.1244ZM46.5492 33.3994C45.5242 33.3994 44.6242 33.3994 43.6742 33.3994C43.6742 34.2744 43.6742 35.1494 43.6742 36.0494C44.6742 36.0494 45.5742 36.0494 46.5492 36.0494C46.5492 35.1244 46.5492 34.2744 46.5492 33.3994Z" fill="#021B1F"/>
<path d="M49.6496 36.1009C49.6496 34.7509 49.6496 33.5259 49.6496 32.2009C62.0746 29.6259 74.4996 27.0509 87.0246 24.4509C87.0246 24.8759 87.0246 25.2009 87.0246 25.5509C87.0246 44.1009 87.0246 62.6758 87.0246 81.2257C87.0246 83.2007 86.2246 84.0007 84.2246 84.0007C58.1496 84.0007 32.0746 84.0007 5.9746 84.0007C3.9246 84.0007 3.1496 83.2007 3.1496 81.1758C3.1496 62.6508 3.1496 44.1259 3.1496 25.6009C3.1496 25.2759 3.1496 24.9259 3.1496 24.4759C15.6746 27.0759 28.0996 29.6259 40.5246 32.2009C40.5246 33.5009 40.5246 34.7259 40.5246 36.1009C40.1496 36.1009 39.7746 36.1009 39.4246 36.1009C31.9996 36.1009 24.5746 36.1009 17.1496 36.1009C15.5996 36.1009 15.1246 36.5509 15.1246 38.0759C15.1246 51.7508 15.1246 65.4008 15.1246 79.0758C15.1246 80.5507 15.5996 81.0257 17.0996 81.0257C33.8746 81.0257 50.6746 81.0508 67.4496 81.0257C75.6246 81.0257 82.4746 75.1758 83.7996 67.1258C85.0746 59.4008 80.3996 51.5508 72.9496 49.0508C72.2496 48.8258 71.9746 48.5509 71.9996 47.7759C72.0496 44.6009 72.0246 41.4009 72.0246 38.2259C72.0246 36.5509 71.5996 36.1009 69.9496 36.1009C63.5746 36.1009 57.2246 36.1009 50.8496 36.1009C50.4996 36.1009 50.1496 36.1009 49.6496 36.1009Z" fill="url(#paint0_linear_82_9357)"/>
<path d="M86.9502 21.4259C74.6002 23.9759 62.2752 26.5259 49.8752 29.0759C49.7752 27.3259 49.2002 25.9259 47.8502 24.9509C46.9002 24.2759 45.8252 24.0259 44.6502 24.1009C42.4002 24.2509 40.8502 25.9259 40.3002 29.0509C27.9752 26.5009 15.6502 23.9509 3.32524 21.4009C2.67524 19.4509 4.17524 18.0759 5.80024 18.0759C32.0002 18.1009 58.2252 18.1009 84.4252 18.1009C86.3752 18.1259 87.2502 19.2509 86.9502 21.4259Z" fill="url(#paint1_linear_82_9357)"/>
<path d="M24.1731 66.3259C24.1731 59.1759 24.1731 52.1759 24.1731 45.126C37.1231 45.126 50.0731 45.126 63.0731 45.126C63.0731 46.176 63.0981 47.201 63.0481 48.201C63.0481 48.426 62.7731 48.726 62.5481 48.826C57.0731 50.751 53.4731 54.4509 51.6981 59.9509C51.5981 60.2759 51.3231 60.6009 51.0481 60.8009C48.6481 62.5759 46.1981 64.3259 43.7981 66.1009C43.3231 66.4509 43.0481 66.4259 42.5981 66.0759C40.3731 64.2509 38.1231 62.4759 35.8981 60.7009C34.8731 59.8759 34.5231 59.8759 33.3981 60.5759C30.3731 62.4509 27.3481 64.3259 24.1731 66.3259ZM43.6481 48.076C40.3231 48.076 37.6231 50.751 37.6231 54.0509C37.6231 57.3509 40.3231 60.0509 43.6231 60.0509C46.8981 60.0509 49.5731 57.3759 49.5981 54.1259C49.6231 50.801 46.9481 48.076 43.6481 48.076Z" fill="#91CFF5"/>
<path d="M54.0997 64.5736C54.0997 57.1236 60.1247 51.0986 67.5997 51.0736C74.9997 51.0486 81.0747 57.1736 81.0747 64.5987C81.0497 71.9237 74.9997 77.9987 67.6747 78.0237C60.1997 78.0487 54.0997 71.9987 54.0997 64.5736ZM75.0497 64.8987C75.0497 63.8486 75.0247 62.7736 75.0497 61.7236C75.0747 60.8986 74.7747 60.2986 74.0247 59.8986C72.1247 58.8236 70.2497 57.7486 68.3747 56.6236C67.6747 56.2236 67.0497 56.2236 66.3497 56.6486C64.4747 57.7486 62.5747 58.8486 60.6997 59.9236C59.9997 60.3236 59.6747 60.8736 59.6997 61.6736C59.7247 63.8486 59.7247 66.0487 59.6997 68.2237C59.6997 69.0237 60.0247 69.5737 60.7247 69.9737C62.6247 71.0487 64.4997 72.1237 66.3747 73.2487C67.0247 73.6237 67.6497 73.6737 68.2997 73.2987C70.2247 72.1737 72.1747 71.0487 74.1247 69.9487C74.7997 69.5737 75.0747 68.9987 75.0497 68.2487C75.0497 67.0737 75.0497 65.9737 75.0497 64.8987Z" fill="white"/>
<path d="M66.9236 39.1494C65.9486 40.0994 65.0986 40.9744 64.2236 41.7994C64.0236 41.9744 63.6736 42.0745 63.3986 42.0745C50.1986 42.0995 37.0235 42.0995 23.8235 42.0745C23.5485 42.0745 23.1985 41.9744 22.9985 41.7994C22.1235 40.9744 21.2735 40.1244 20.2985 39.1494C35.8735 39.1494 51.2986 39.1494 66.9236 39.1494Z" fill="#D5D4CF"/>
<path d="M20.275 77.9503C21.275 76.9754 22.125 76.1004 23.05 75.2755C23.25 75.1005 23.6 75.0505 23.9 75.0255C34 75.0255 44.1 75.0005 54.2 75.0255C54.525 75.0255 54.925 75.1755 55.175 75.4005C56.075 76.2004 56.925 77.0753 57.825 77.9253C45.4 77.9503 32.925 77.9503 20.275 77.9503Z" fill="#D5D4CF"/>
<path d="M18.1731 75.9237C18.1731 64.2487 18.1731 52.8487 18.1731 41.4487C18.2231 41.3987 18.2981 41.3237 18.3481 41.2737C19.2231 42.1987 20.1231 43.1237 20.9731 44.0987C21.0981 44.2487 21.1231 44.5487 21.1231 44.7987C21.1231 53.9737 21.1231 63.1487 21.1231 72.2987C21.1231 72.5987 20.9981 72.9737 20.7981 73.1987C20.0231 74.0737 19.1731 74.9237 18.1731 75.9237Z" fill="#ADACA9"/>
<path d="M40.6989 68.3486C39.0239 69.5737 37.4489 70.6987 35.8989 71.8237C35.7239 71.9487 35.4989 72.0237 35.2989 72.0237C31.6239 72.0237 27.9489 72.0237 24.2989 72.0237C23.8739 70.2987 24.0239 69.9237 25.3739 69.0736C28.1989 67.3236 31.0239 65.5486 33.8739 63.7986C34.1489 63.6236 34.6989 63.5486 34.8989 63.6986C36.8239 65.1986 38.6989 66.7236 40.6989 68.3486Z" fill="#3E7848"/>
<path d="M33.1731 6.0729C33.1731 5.0979 33.1731 4.1979 33.1731 3.2229C41.123 3.2229 49.023 3.2229 57.0229 3.2229C57.0229 4.1479 57.0229 5.0479 57.0229 6.0729C49.098 6.0729 41.173 6.0729 33.1731 6.0729Z" fill="white"/>
<path d="M50.8237 64.6992C51.3987 67.1492 51.9736 69.5492 52.5736 71.9742C48.8487 71.9742 44.9488 71.9742 40.8488 71.9742C44.2488 69.4742 47.5737 67.0492 50.8237 64.6992Z" fill="#4D9459"/>
<path d="M30.0996 3.2229C30.0996 7.1979 30.0996 11.1229 30.0996 15.0979C29.1246 15.0979 28.1746 15.0979 27.1246 15.0979C27.1246 14.0979 27.1246 13.0979 27.1246 12.0729C27.1246 10.2729 27.1246 8.4729 27.1246 6.6729C27.1496 4.8229 28.2246 3.5729 30.0996 3.2229Z" fill="white"/>
<path d="M60.1246 3.19946C62.0247 3.59946 63.0498 4.82447 63.0748 6.64948C63.0998 9.44949 63.0748 12.2245 63.0748 15.0745C62.0747 15.0745 61.1247 15.0745 60.1246 15.0745C60.1246 11.1495 60.1246 7.19948 60.1246 3.19946Z" fill="white"/>
<path d="M69.0747 41.1738C69.0747 43.5738 69.0747 45.6738 69.0747 47.7488C69.0747 47.8488 69.0497 47.9238 69.0247 48.0488C68.0747 48.0488 67.1247 48.0488 66.0997 48.0488C66.0997 46.8488 66.0997 45.6738 66.0997 44.4988C66.0997 44.3238 66.1997 44.1238 66.2997 43.9988C67.1497 43.0988 68.0247 42.2238 69.0747 41.1738Z" fill="#ADACA9"/>
<path d="M45.0988 27.1257C45.9988 27.1257 46.7737 27.8757 46.7987 28.7757C46.8237 29.7007 45.9988 30.5007 45.0738 30.5007C44.1739 30.4757 43.4239 29.7007 43.4239 28.8007C43.4239 27.9007 44.1989 27.1257 45.0988 27.1257Z" fill="url(#paint2_linear_82_9357)"/>
<path d="M46.5481 33.3984C46.5481 34.2734 46.5481 35.1234 46.5481 36.0484C45.5731 36.0484 44.6731 36.0484 43.6731 36.0484C43.6731 35.1484 43.6731 34.2734 43.6731 33.3984C44.6231 33.3984 45.5481 33.3984 46.5481 33.3984Z" fill="url(#paint3_linear_82_9357)"/>
<path d="M43.6497 48.0759C46.9497 48.0759 49.6247 50.8009 49.5997 54.1258C49.5747 57.3758 46.8997 60.0507 43.6247 60.0507C40.3247 60.0507 37.6246 57.3508 37.6246 54.0508C37.6246 50.7509 40.3247 48.0759 43.6497 48.0759ZM46.5997 54.0258C46.5747 52.4009 45.2247 51.0759 43.5997 51.0759C41.9747 51.0759 40.6247 52.4509 40.6247 54.0508C40.6247 55.7258 41.9997 57.0758 43.6747 57.0508C45.2997 57.0258 46.6247 55.6508 46.5997 54.0258Z" fill="#021B1F"/>
<path d="M75.0486 64.8998C75.0486 65.9998 75.0236 67.0748 75.0486 68.1748C75.0736 68.9248 74.7986 69.4998 74.1236 69.8748C72.1736 70.9748 70.2486 72.0998 68.2986 73.2248C67.6236 73.6248 67.0235 73.5748 66.3735 73.1748C64.4985 72.0748 62.5985 70.9748 60.7235 69.8998C60.0235 69.4998 59.6985 68.9748 59.6985 68.1498C59.7235 65.9748 59.7235 63.7748 59.6985 61.5998C59.6985 60.7998 60.0235 60.2498 60.6985 59.8498C62.5985 58.7748 64.4735 57.6998 66.3485 56.5748C67.0485 56.1748 67.6736 56.1498 68.3736 56.5498C70.2486 57.6498 72.1486 58.7498 74.0236 59.8248C74.7486 60.2498 75.0736 60.8248 75.0486 61.6498C75.0236 62.7748 75.0486 63.8248 75.0486 64.8998ZM64.0485 61.4498C65.1485 62.0748 66.0735 62.6498 67.0236 63.1748C67.1986 63.2748 67.4736 63.3248 67.5986 63.2498C68.5986 62.6998 69.5986 62.0998 70.7236 61.4498C69.6236 60.7998 68.6986 60.2498 67.7486 59.7248C67.5736 59.6248 67.2485 59.6248 67.0735 59.6998C66.0985 60.2248 65.1485 60.7998 64.0485 61.4498ZM62.6985 64.1498C62.6985 65.2498 62.6735 66.1998 62.6985 67.1248C62.6985 67.3498 62.7985 67.6498 62.9485 67.7498C63.8735 68.3248 64.7985 68.8498 65.8485 69.4498C65.8485 68.3498 65.8735 67.3998 65.8235 66.4248C65.8235 66.1998 65.6485 65.8998 65.4485 65.7748C64.6235 65.2248 63.7235 64.7248 62.6985 64.1498ZM68.8736 69.4498C69.9236 68.8498 70.8486 68.3248 71.7486 67.7748C71.8986 67.6748 72.0486 67.4498 72.0486 67.2748C72.0736 66.2998 72.0736 65.2998 72.0736 64.1498C70.9736 64.7998 69.7736 65.1748 69.0736 65.9998C68.6236 66.4998 68.9236 67.6498 68.8736 68.4998C68.8736 68.7498 68.8736 68.9998 68.8736 69.4498Z" fill="#021B1F"/>
<path d="M46.5995 54.0259C46.6245 55.6509 45.2995 57.0259 43.6746 57.0509C41.9996 57.0759 40.6246 55.7259 40.6246 54.0509C40.6246 52.4259 41.9746 51.0759 43.5996 51.0759C45.2245 51.0759 46.5745 52.4009 46.5995 54.0259Z" fill="#DF293B"/>
<path d="M64.0489 61.4502C65.1489 60.8002 66.0989 60.2251 67.0989 59.7001C67.2739 59.6001 67.5989 59.6251 67.7739 59.7251C68.7239 60.2501 69.6489 60.8002 70.7489 61.4502C69.6239 62.1002 68.6489 62.7002 67.6239 63.2502C67.4739 63.3252 67.1989 63.2752 67.0489 63.1752C66.0739 62.6252 65.1489 62.0752 64.0489 61.4502Z" fill="url(#paint4_linear_82_9357)"/>
<path d="M62.6988 64.1485C63.7238 64.7485 64.6239 65.2235 65.4739 65.7735C65.6739 65.8985 65.8489 66.1985 65.8489 66.4235C65.8989 67.3735 65.8739 68.3485 65.8739 69.4485C64.8239 68.8485 63.8738 68.3235 62.9738 67.7485C62.8238 67.6485 62.7238 67.3485 62.7238 67.1235C62.6738 66.1735 62.6988 65.2485 62.6988 64.1485Z" fill="url(#paint5_linear_82_9357)"/>
<path d="M68.8747 69.447C68.8747 68.997 68.8747 68.772 68.8747 68.522C68.8997 67.672 68.6246 66.522 69.0747 66.022C69.7748 65.197 70.9499 64.822 72.075 64.172C72.075 65.322 72.1 66.297 72.05 67.297C72.05 67.472 71.9 67.722 71.7499 67.797C70.8499 68.322 69.9498 68.822 68.8747 69.447Z" fill="url(#paint6_linear_82_9357)"/>
<defs>
<linearGradient id="paint0_linear_82_9357" x1="45.0871" y1="24.4509" x2="45.0871" y2="84.0007" gradientUnits="userSpaceOnUse">
<stop stop-color="#00BED8"/>
<stop offset="1" stop-color="#008294"/>
</linearGradient>
<linearGradient id="paint1_linear_82_9357" x1="45.0889" y1="18.0759" x2="45.0889" y2="29.0759" gradientUnits="userSpaceOnUse">
<stop stop-color="#00BED8"/>
<stop offset="1" stop-color="#008294"/>
</linearGradient>
<linearGradient id="paint2_linear_82_9357" x1="45.1116" y1="27.1257" x2="45.1116" y2="36.0484" gradientUnits="userSpaceOnUse">
<stop stop-color="#00BED8"/>
<stop offset="1" stop-color="#008294"/>
</linearGradient>
<linearGradient id="paint3_linear_82_9357" x1="45.1116" y1="27.1257" x2="45.1116" y2="36.0484" gradientUnits="userSpaceOnUse">
<stop stop-color="#00BED8"/>
<stop offset="1" stop-color="#008294"/>
</linearGradient>
<linearGradient id="paint4_linear_82_9357" x1="67.3869" y1="59.6365" x2="67.3869" y2="69.4485" gradientUnits="userSpaceOnUse">
<stop stop-color="#00BED8"/>
<stop offset="1" stop-color="#008294"/>
</linearGradient>
<linearGradient id="paint5_linear_82_9357" x1="67.3869" y1="59.6365" x2="67.3869" y2="69.4485" gradientUnits="userSpaceOnUse">
<stop stop-color="#00BED8"/>
<stop offset="1" stop-color="#008294"/>
</linearGradient>
<linearGradient id="paint6_linear_82_9357" x1="67.3869" y1="59.6365" x2="67.3869" y2="69.4485" gradientUnits="userSpaceOnUse">
<stop stop-color="#00BED8"/>
<stop offset="1" stop-color="#008294"/>
</linearGradient>
</defs>
</svg>
