<svg width="91" height="90" viewBox="0 0 91 90" fill="none" xmlns="http://www.w3.org/2000/svg">
<path d="M63.55 62.7C67.4 72.275 63.675 81.2 57.625 85.825C51.15 90.775 42.15 91.15 35.4 86.7C31.475 84.125 28.8 80.575 27.45 76.075C26.1 71.625 26.4 67.225 28.175 62.9C17.225 66.275 8.37499 63.725 2.99999 53.325C-0.700011 46.2 0.499988 39.075 5.49999 32.775C8.19999 29.375 11.8 27.275 16.05 26.3C20.25 25.325 24.325 25.825 28.475 27.6C25.9 21.525 25.975 15.725 29 10.075C30.925 6.44999 33.825 3.74999 37.5 1.94999C44.95 -1.70001 53.825 -0.125008 59.7 5.84999C65.25 11.5 66.775 20.525 63.275 27.55C71.825 24.275 79.45 25.525 85.775 32.175C89.475 36.05 91.05 40.875 90.75 46.225C90.525 50.5 89 54.3 86.225 57.55C83.475 60.775 80.025 62.9 75.875 63.875C71.75 64.85 67.7 64.375 63.55 62.7ZM58.15 29.875C63.375 24.225 63.95 14.25 57.35 7.67499C51 1.32499 40.65 1.39999 34.325 7.82499C27.875 14.35 28.425 24.3 33.65 29.9C41.825 24.125 49.975 24.125 58.15 29.875ZM58.15 59.9C49.975 65.65 41.825 65.65 33.65 59.9C28.325 65.775 27.975 75.65 34.425 82.075C40.85 88.45 51.175 88.4 57.45 82C63.9 75.45 63.35 65.55 58.15 59.9ZM60.925 57.3C65.775 62.15 75.825 63.45 82.825 56.825C89.5499 50.45 89.5 39.575 82.7 33.2C75.725 26.675 65.825 28.1 61.15 32.675C62.3 34.85 63.425 36.975 64.575 39.15C65.75 38.075 67.25 37.4 69 37.375C71.575 37.35 74.175 37.35 76.75 37.375C79.9 37.425 82.625 39.65 83.15 42.75C83.375 44.025 83.35 45.35 83.325 46.65C83.275 48.925 82.225 50.675 80.2 51.7C78.175 52.725 76.175 52.55 74.275 51.25C73.425 50.675 72.3 50.65 71.45 51.25C69.425 52.675 66.9 52.7 64.875 51.325C64.675 51.2 64.5 51.05 64.425 51C63.225 53.175 62.075 55.225 60.925 57.3ZM30.825 32.775C24.925 27.4 14.7 27.125 8.32499 34C1.97499 40.85 2.62499 51.45 9.77498 57.5C16.875 63.5 26.475 61.8 30.975 57.175C30.375 56.275 29.75 55.425 29.225 54.525C28.95 54.025 28.625 53.85 28.05 53.875C22.175 53.9 16.325 53.9 10.45 53.9C8.92499 53.9 8.44999 53.425 8.44999 51.9C8.44999 47.275 8.44999 42.675 8.44999 38.05C8.44999 36.375 8.89999 35.95 10.55 35.95C16.375 35.95 22.225 35.95 28.05 35.975C28.625 35.975 28.95 35.825 29.225 35.325C29.7 34.425 30.275 33.65 30.825 32.775ZM29.625 44.85C29.575 53.8 36.875 61.15 45.875 61.175C54.75 61.2 62.125 53.9 62.175 45.075C62.225 36.075 55 28.675 46.15 28.6C37.025 28.55 29.675 35.775 29.625 44.85ZM72.9 40.4C71.625 40.4 70.35 40.375 69.075 40.4C67 40.45 65.425 42.025 65.375 44.1C65.35 44.875 65.375 45.65 65.375 46.45C65.375 47.7 65.875 48.65 67.025 49.15C68.175 49.65 69.175 49.325 70.125 48.55C70.575 48.2 71.2 48.025 71.8 47.925C72.375 47.825 72.975 47.95 73.575 47.9C74.475 47.825 75.175 48.075 75.85 48.725C76.65 49.5 77.675 49.625 78.725 49.175C79.75 48.725 80.3 47.875 80.35 46.75C80.375 45.9 80.375 45.075 80.35 44.225C80.3 42.05 78.725 40.475 76.55 40.425C75.325 40.4 74.1 40.4 72.9 40.4ZM19.2 46.1C20.9 45.25 22.475 44.475 24.05 43.65C24.8 43.25 25.475 43.325 26.1 43.925C26.25 44.05 26.4 44.175 26.5 44.25C26.825 42.45 27.125 40.7 27.425 38.95C22.125 38.95 16.825 38.95 11.525 38.95C11.525 41.125 11.525 43.25 11.525 45.425C12.775 44.8 13.95 44.225 15.1 43.625C15.875 43.225 16.525 43.325 17.125 43.95C17.8 44.65 18.475 45.35 19.2 46.1ZM11.575 50.825C14.25 50.825 16.925 50.825 19.6 50.825C18.25 49.475 16.925 48.15 15.55 46.775C14.75 47.175 13.925 47.7 13.025 48C11.65 48.5 11.1 49.325 11.575 50.825ZM27.45 50.875C27.4 48.925 25.875 48.1 24.85 46.975C24.75 46.875 24.5 46.825 24.375 46.875C23.425 47.325 22.5 47.8 21.425 48.325C22.275 49.175 23.025 49.9 23.8 50.625C23.95 50.775 24.225 50.875 24.45 50.875C25.475 50.9 26.45 50.875 27.45 50.875Z" fill="#021B1F"/>
<path d="M58.15 29.8749C49.975 24.1249 41.825 24.1249 33.65 29.8749C28.425 24.2999 27.875 14.3499 34.325 7.79988C40.65 1.39988 51 1.32488 57.35 7.64988C63.95 14.2499 63.375 24.2249 58.15 29.8749ZM42.9 11.7749C45.9 11.3999 48.85 11.0249 51.85 10.6499C51.85 11.5999 51.85 12.4749 51.85 13.4499C51.25 13.4499 50.7 13.4249 50.15 13.4499C47.875 13.5749 46.025 15.4499 45.925 17.6749C45.8 20.1749 47.75 22.3249 50.225 22.3999C52.725 22.4999 54.825 20.5499 54.875 18.0249C54.925 15.1249 54.9 12.2249 54.9 9.32488C54.9 7.84988 54.225 7.27488 52.775 7.47488C49.025 7.94988 45.3 8.42488 41.55 8.89988C40.35 9.04988 39.925 9.52488 39.925 10.7249C39.925 12.0999 39.925 13.4499 39.925 14.8999C39.325 14.8999 38.8 14.8749 38.275 14.8999C35 15.0749 32.95 18.4999 34.4 21.4249C35.3 23.2499 37.375 24.2749 39.325 23.8249C41.425 23.3499 42.875 21.6249 42.9 19.4999C42.925 16.9499 42.9 14.3999 42.9 11.7749Z" fill="url(#paint0_linear_82_9328)"/>
<path d="M58.15 59.8997C63.35 65.5497 63.925 75.4246 57.45 81.9996C51.15 88.3996 40.85 88.4496 34.425 82.0746C27.975 75.6496 28.325 65.7747 33.65 59.8997C41.8 65.6497 49.975 65.6497 58.15 59.8997ZM51.975 77.6996C52.675 78.1746 53.3 78.5996 53.925 78.9996C55.175 79.7746 56.375 79.1247 56.375 77.6747C56.4 74.7997 56.425 71.9496 56.35 69.0746C56.325 68.5746 56 67.8497 55.575 67.6497C55.125 67.4247 54.375 67.5747 53.875 67.7997C53.2 68.0747 52.625 68.5997 52 68.9997C51.575 67.6497 51.25 67.3747 49.875 67.3747C46.2 67.3747 42.525 67.3747 38.85 67.3747C37.425 67.3747 36.925 67.8747 36.925 69.2747C36.925 71.9747 36.925 74.6997 36.925 77.3996C36.925 78.8496 37.425 79.3246 38.9 79.3496C42.575 79.3496 46.25 79.3496 49.925 79.3496C51.25 79.3246 51.6 79.0496 51.975 77.6996Z" fill="url(#paint1_linear_82_9328)"/>
<path d="M60.925 57.2998C62.1 55.1999 63.225 53.1749 64.425 51.0499C64.5 51.0999 64.7 51.2249 64.875 51.3749C66.9 52.7499 69.425 52.7249 71.45 51.2999C72.3 50.6999 73.425 50.6999 74.275 51.2999C76.15 52.5749 78.175 52.7749 80.2 51.7499C82.225 50.7249 83.3 48.9749 83.325 46.6999C83.35 45.3999 83.375 44.0749 83.15 42.7999C82.6 39.6999 79.9 37.4749 76.75 37.4249C74.175 37.3749 71.575 37.3999 69 37.4249C67.25 37.4499 65.75 38.1249 64.575 39.1999C63.425 37.0249 62.3 34.8999 61.15 32.7249C65.825 28.1249 75.75 26.7249 82.7 33.2499C89.5 39.6249 89.575 50.4999 82.825 56.8749C75.8 63.4498 65.75 62.1498 60.925 57.2998Z" fill="url(#paint2_linear_82_9328)"/>
<path d="M30.825 32.7749C30.275 33.6249 29.7 34.4249 29.225 35.2499C28.95 35.7499 28.625 35.8999 28.05 35.8999C22.225 35.8749 16.375 35.8749 10.55 35.8749C8.90001 35.8749 8.45 36.3249 8.45 37.9749C8.45 42.5999 8.45 47.1999 8.45 51.8249C8.45 53.3499 8.925 53.8249 10.45 53.8249C16.325 53.8249 22.175 53.8249 28.05 53.7999C28.625 53.7999 28.925 53.9499 29.225 54.4499C29.75 55.3749 30.375 56.2249 30.975 57.0999C26.475 61.7249 16.875 63.4249 9.775 57.4249C2.625 51.3749 1.97501 40.7749 8.325 33.9249C14.7 27.1499 24.925 27.4249 30.825 32.7749Z" fill="url(#paint3_linear_82_9328)"/>
<path d="M29.625 44.8501C29.675 35.7501 37.025 28.5501 46.15 28.6001C55 28.6501 62.225 36.0751 62.175 45.0751C62.125 53.9251 54.75 61.2251 45.875 61.1751C36.875 61.1501 29.575 53.8001 29.625 44.8501ZM32.6 44.4501C32.6 52.0251 38.675 58.1751 46.225 58.1751C53.775 58.2001 59.9 52.1001 59.925 44.5251C59.95 37.0501 53.8 30.8501 46.35 30.8501C38.775 30.8501 32.625 36.9251 32.6 44.4501Z" fill="url(#paint4_linear_82_9328)"/>
<path d="M72.9 40.4C74.125 40.4 75.325 40.375 76.55 40.4C78.725 40.425 80.3 42.025 80.35 44.2C80.375 45.05 80.375 45.875 80.35 46.725C80.3 47.85 79.75 48.675 78.725 49.15C77.7 49.6 76.675 49.475 75.85 48.7C75.175 48.05 74.475 47.825 73.575 47.875C72.975 47.925 72.375 47.8 71.8 47.9C71.225 48 70.575 48.175 70.125 48.525C69.15 49.3 68.175 49.625 67.025 49.125C65.875 48.625 65.375 47.675 65.375 46.425C65.375 45.65 65.35 44.875 65.375 44.075C65.425 42 67 40.425 69.075 40.375C70.325 40.375 71.625 40.4 72.9 40.4ZM72.45 44.425C71.75 43.6 71.075 42.75 70.325 42C70.075 41.75 69.625 41.575 69.25 41.55C67.9 41.5 67.875 43.225 66.725 43.525C66.525 43.575 66.35 44.15 66.325 44.5C66.225 45.875 68 45.875 68.275 47.05C68.325 47.275 68.95 47.475 69.325 47.475C70.675 47.525 70.7 45.775 71.85 45.5C72.1 45.45 72.2 44.9 72.45 44.425ZM76.475 47.125C77.7 47.2 78.775 46.225 78.85 45C78.9 43.8 77.975 42.75 76.8 42.65C75.575 42.55 74.475 43.5 74.375 44.725C74.275 45.975 75.225 47.05 76.475 47.125Z" fill="#E2E1DC"/>
<path d="M19.2 46.1001C18.475 45.3501 17.825 44.6501 17.15 43.9751C16.55 43.3501 15.875 43.2501 15.125 43.6501C13.975 44.2501 12.8 44.8251 11.55 45.4501C11.55 43.2751 11.55 41.1501 11.55 38.9751C16.85 38.9751 22.15 38.9751 27.45 38.9751C27.15 40.7251 26.825 42.4751 26.525 44.2751C26.425 44.2001 26.25 44.1001 26.125 43.9501C25.5 43.3501 24.85 43.2751 24.075 43.6751C22.475 44.4501 20.9 45.2501 19.2 46.1001ZM20.475 40.2251C19.575 40.2001 18.8 40.9501 18.75 41.8501C18.725 42.7501 19.45 43.5501 20.35 43.6001C21.3 43.6501 22.1 42.8751 22.125 41.9251C22.125 41.0001 21.375 40.2501 20.475 40.2251Z" fill="#91CFF4"/>
<path d="M11.575 50.8251C11.1 49.3251 11.65 48.5001 13.025 48.0251C13.925 47.7001 14.75 47.2001 15.55 46.8C16.925 48.1751 18.25 49.5001 19.6 50.8501C16.925 50.8251 14.25 50.8251 11.575 50.8251Z" fill="#9BB06C"/>
<path d="M27.45 50.8749C26.45 50.8749 25.45 50.8999 24.475 50.8749C24.25 50.8749 23.975 50.7749 23.825 50.6249C23.05 49.8999 22.3 49.1749 21.45 48.3248C22.525 47.7998 23.45 47.3248 24.4 46.8748C24.525 46.8248 24.775 46.8748 24.875 46.9748C25.9 48.1248 27.425 48.9249 27.45 50.8749Z" fill="#748552"/>
<path d="M42.9 11.775C42.9 14.4 42.925 16.95 42.9 19.5C42.875 21.625 41.425 23.35 39.325 23.825C37.4 24.25 35.325 23.25 34.4 21.425C32.95 18.5 35 15.075 38.275 14.95C38.8 14.925 39.325 14.95 39.925 14.95C39.925 13.5 39.925 12.15 39.925 10.775C39.925 9.57499 40.375 9.09999 41.55 8.94999C45.3 8.47499 49.025 7.99999 52.775 7.52499C54.225 7.34999 54.9 7.89999 54.9 9.37499C54.9 12.275 54.95 15.175 54.875 18.075C54.825 20.6 52.725 22.525 50.225 22.45C47.75 22.35 45.8 20.225 45.925 17.725C46.025 15.475 47.875 13.625 50.15 13.5C50.7 13.475 51.25 13.5 51.85 13.5C51.85 12.525 51.85 11.65 51.85 10.7C48.85 11.025 45.9 11.4 42.9 11.775ZM51.875 16.45C51.275 16.45 50.75 16.4 50.25 16.45C49.425 16.525 48.825 17.25 48.9 18.05C48.95 18.775 49.55 19.375 50.275 19.425C51.075 19.475 51.775 18.9 51.875 18.075C51.925 17.575 51.875 17.05 51.875 16.45ZM39.9 17.95C39.3 17.95 38.775 17.9 38.275 17.95C37.475 18.025 36.9 18.675 36.925 19.45C36.925 20.225 37.55 20.875 38.325 20.925C39.125 20.975 39.825 20.4 39.9 19.575C39.95 19.05 39.9 18.525 39.9 17.95Z" fill="#021B1F"/>
<path d="M51.975 77.7001C51.625 79.0501 51.25 79.3251 49.95 79.3251C46.275 79.3251 42.6 79.3251 38.925 79.3251C37.45 79.3251 36.95 78.8251 36.95 77.3751C36.95 74.6751 36.95 71.9501 36.95 69.2501C36.95 67.8501 37.45 67.3501 38.875 67.3501C42.55 67.3501 46.225 67.3501 49.9 67.3501C51.25 67.3501 51.6 67.6001 52.025 68.9751C52.65 68.5501 53.225 68.0501 53.9 67.7751C54.425 67.5501 55.15 67.4251 55.6 67.6251C56 67.8251 56.35 68.5501 56.375 69.0501C56.45 71.9251 56.425 74.7751 56.4 77.6501C56.4 79.1001 55.2 79.7501 53.95 78.9751C53.275 78.6001 52.675 78.1751 51.975 77.7001ZM48.875 70.4001C45.85 70.4001 42.9 70.4001 39.975 70.4001C39.975 72.4001 39.975 74.3501 39.975 76.2751C42.975 76.2751 45.9 76.2751 48.875 76.2751C48.875 74.3001 48.875 72.4001 48.875 70.4001ZM53.375 71.6751C52.6 72.2251 51.55 72.4751 51.925 73.5501C52.125 74.1001 52.725 74.5251 53.15 75.0001C53.225 74.9501 53.3 74.8751 53.35 74.8251C53.375 73.8501 53.375 72.8501 53.375 71.6751Z" fill="#021B1F"/>
<path d="M32.6 44.4501C32.6 36.9251 38.775 30.8501 46.35 30.8501C53.8 30.8501 59.95 37.0501 59.925 44.5251C59.9 52.1001 53.775 58.1751 46.225 58.1751C38.7 58.1751 32.6 52.0251 32.6 44.4501ZM46.25 33.8501C40.35 33.8751 35.575 38.6751 35.6 44.6001C35.625 50.4751 40.45 55.2501 46.375 55.2001C52.2 55.1501 56.975 50.3001 56.925 44.4501C56.9 38.5751 52.1 33.8251 46.25 33.8501Z" fill="#021B1F"/>
<path d="M72.45 44.425C72.2 44.9 72.1 45.45 71.85 45.525C70.675 45.825 70.65 47.55 69.325 47.5C68.95 47.5 68.325 47.3 68.275 47.075C68 45.9 66.225 45.9 66.325 44.525C66.35 44.175 66.525 43.6 66.725 43.55C67.9 43.25 67.925 41.525 69.25 41.575C69.625 41.575 70.075 41.75 70.325 42.025C71.075 42.75 71.75 43.6 72.45 44.425Z" fill="#021B1F"/>
<path d="M76.475 47.125C75.25 47.05 74.275 45.95 74.375 44.725C74.45 43.5 75.575 42.5501 76.8 42.6501C78 42.7501 78.925 43.8 78.85 45C78.775 46.225 77.7 47.2 76.475 47.125Z" fill="#021B1F"/>
<path d="M20.475 40.225C21.375 40.25 22.125 41.025 22.125 41.925C22.125 42.875 21.3 43.65 20.35 43.6C19.45 43.55 18.725 42.775 18.75 41.85C18.8 40.925 19.575 40.2 20.475 40.225Z" fill="#021B1F"/>
<path d="M51.875 16.4498C51.875 17.0498 51.925 17.5748 51.875 18.0748C51.8 18.8998 51.075 19.4998 50.275 19.4248C49.55 19.3748 48.95 18.7748 48.9 18.0498C48.85 17.2498 49.425 16.5498 50.25 16.4498C50.775 16.3998 51.275 16.4498 51.875 16.4498Z" fill="url(#paint5_linear_82_9328)"/>
<path d="M39.9 17.9498C39.9 18.5498 39.95 19.0498 39.9 19.5748C39.825 20.3998 39.125 20.9998 38.325 20.9248C37.55 20.8748 36.95 20.2248 36.925 19.4498C36.925 18.6748 37.475 18.0248 38.275 17.9498C38.775 17.8998 39.3 17.9498 39.9 17.9498Z" fill="url(#paint6_linear_82_9328)"/>
<path d="M48.875 70.3997C48.875 72.3747 48.875 74.2997 48.875 76.2747C45.9 76.2747 42.975 76.2747 39.975 76.2747C39.975 74.3497 39.975 72.3997 39.975 70.3997C42.9 70.3997 45.85 70.3997 48.875 70.3997Z" fill="#529EFE"/>
<path d="M53.375 71.675C53.375 72.85 53.375 73.825 53.375 74.825C53.3 74.875 53.225 74.95 53.175 75C52.75 74.525 52.15 74.1 51.95 73.55C51.55 72.475 52.575 72.225 53.375 71.675Z" fill="#0A6EC8"/>
<path d="M46.25 33.8497C52.1 33.8247 56.9 38.5747 56.95 44.4497C57 50.2997 52.225 55.1497 46.4 55.1997C40.475 55.2497 35.65 50.4747 35.625 44.5997C35.575 38.6747 40.35 33.8747 46.25 33.8497ZM53.75 44.9247C53.75 43.8247 53.725 42.7497 53.75 41.6497C53.775 40.7997 53.425 40.2497 52.7 39.8247C50.825 38.7747 48.975 37.6997 47.125 36.5997C46.4 36.1747 45.75 36.1747 45.025 36.5997C43.175 37.6997 41.325 38.7747 39.45 39.8247C38.725 40.2247 38.375 40.7997 38.4 41.6497C38.425 43.7997 38.425 45.9497 38.4 48.0997C38.4 48.8997 38.675 49.4747 39.375 49.8747C41.3 50.9747 43.2 52.0747 45.125 53.1997C45.8 53.5997 46.4 53.5747 47.05 53.1997C48.95 52.0747 50.875 50.9747 52.8 49.8747C53.5 49.4747 53.8 48.8997 53.775 48.0997C53.725 47.0497 53.75 45.9747 53.75 44.9247Z" fill="white"/>
<path d="M53.75 44.925C53.75 45.975 53.725 47.05 53.75 48.1C53.775 48.9 53.475 49.475 52.775 49.875C50.85 50.975 48.95 52.075 47.025 53.2C46.375 53.6 45.75 53.6 45.1 53.2C43.2 52.075 41.275 50.975 39.35 49.875C38.65 49.475 38.35 48.9 38.375 48.1C38.4 45.95 38.4 43.8 38.375 41.65C38.375 40.8 38.7 40.25 39.425 39.825C41.3 38.775 43.15 37.7 45 36.6C45.725 36.175 46.375 36.175 47.1 36.6C48.95 37.7 50.8 38.775 52.675 39.825C53.4 40.225 53.75 40.8 53.725 41.65C53.725 42.75 53.75 43.825 53.75 44.925ZM49.45 41.425C48.35 40.775 47.4 40.225 46.425 39.675C46.275 39.6 46 39.575 45.85 39.65C44.85 40.2 43.85 40.775 42.775 41.425C43.85 42.05 44.825 42.625 45.8 43.175C45.95 43.275 46.25 43.3 46.4 43.2C47.35 42.65 48.325 42.075 49.45 41.425ZM44.6 49.4C44.6 48.275 44.625 47.275 44.575 46.3C44.575 46.125 44.425 45.875 44.3 45.8C43.375 45.25 42.45 44.7 41.425 44.125C41.425 45.225 41.4 46.15 41.45 47.075C41.45 47.3 41.6 47.625 41.775 47.75C42.625 48.3 43.55 48.8 44.6 49.4ZM47.575 49.425C48.625 48.825 49.55 48.275 50.475 47.725C50.6 47.65 50.725 47.45 50.75 47.3C50.775 46.3 50.75 45.3 50.75 44.15C49.7 44.75 48.775 45.275 47.9 45.825C47.75 45.925 47.6 46.15 47.6 46.325C47.575 47.275 47.575 48.275 47.575 49.425Z" fill="#021B1F"/>
<path d="M49.45 41.4248C48.35 42.0748 47.35 42.6498 46.35 43.1998C46.2 43.2748 45.925 43.2498 45.75 43.1748C44.775 42.6248 43.825 42.0748 42.725 41.4248C43.825 40.7998 44.8 40.1998 45.8 39.6498C45.95 39.5748 46.225 39.5998 46.375 39.6748C47.4 40.2248 48.35 40.7748 49.45 41.4248Z" fill="url(#paint7_linear_82_9328)"/>
<path d="M44.6 49.4001C43.575 48.8001 42.65 48.3001 41.775 47.7251C41.6 47.6001 41.45 47.2751 41.45 47.0501C41.425 46.1251 41.425 45.1751 41.425 44.1001C42.45 44.7001 43.4 45.2251 44.3 45.7751C44.45 45.8751 44.575 46.1001 44.575 46.2751C44.6 47.3001 44.6 48.2751 44.6 49.4001Z" fill="url(#paint8_linear_82_9328)"/>
<path d="M47.575 49.4249C47.575 48.2749 47.55 47.2749 47.6 46.2999C47.6 46.1249 47.75 45.8999 47.9 45.7999C48.8 45.2499 49.7 44.75 50.75 44.125C50.75 45.2749 50.75 46.2749 50.75 47.2749C50.75 47.4249 50.625 47.6249 50.475 47.6999C49.575 48.2749 48.625 48.7999 47.575 49.4249Z" fill="url(#paint9_linear_82_9328)"/>
<defs>
<linearGradient id="paint0_linear_82_9328" x1="45.897" y1="2.95264" x2="45.897" y2="29.8749" gradientUnits="userSpaceOnUse">
<stop stop-color="#00BED8"/>
<stop offset="1" stop-color="#008294"/>
</linearGradient>
<linearGradient id="paint1_linear_82_9328" x1="45.8993" y1="59.8997" x2="45.8993" y2="86.8279" gradientUnits="userSpaceOnUse">
<stop stop-color="#00BED8"/>
<stop offset="1" stop-color="#008294"/>
</linearGradient>
<linearGradient id="paint2_linear_82_9328" x1="74.3845" y1="28.8091" x2="74.3845" y2="61.378" gradientUnits="userSpaceOnUse">
<stop stop-color="#00BED8"/>
<stop offset="1" stop-color="#008294"/>
</linearGradient>
<linearGradient id="paint3_linear_82_9328" x1="17.466" y1="28.7971" x2="17.466" y2="61.2825" gradientUnits="userSpaceOnUse">
<stop stop-color="#00BED8"/>
<stop offset="1" stop-color="#008294"/>
</linearGradient>
<linearGradient id="paint4_linear_82_9328" x1="45.9" y1="28.5999" x2="45.9" y2="61.1754" gradientUnits="userSpaceOnUse">
<stop stop-color="#00BED8"/>
<stop offset="1" stop-color="#008294"/>
</linearGradient>
<linearGradient id="paint5_linear_82_9328" x1="44.4111" y1="16.4276" x2="44.4111" y2="20.9312" gradientUnits="userSpaceOnUse">
<stop stop-color="#00BED8"/>
<stop offset="1" stop-color="#008294"/>
</linearGradient>
<linearGradient id="paint6_linear_82_9328" x1="44.4111" y1="16.4276" x2="44.4111" y2="20.9312" gradientUnits="userSpaceOnUse">
<stop stop-color="#00BED8"/>
<stop offset="1" stop-color="#008294"/>
</linearGradient>
<linearGradient id="paint7_linear_82_9328" x1="46.0875" y1="39.6045" x2="46.0875" y2="49.4249" gradientUnits="userSpaceOnUse">
<stop stop-color="#00BED8"/>
<stop offset="1" stop-color="#008294"/>
</linearGradient>
<linearGradient id="paint8_linear_82_9328" x1="46.0875" y1="39.6045" x2="46.0875" y2="49.4249" gradientUnits="userSpaceOnUse">
<stop stop-color="#00BED8"/>
<stop offset="1" stop-color="#008294"/>
</linearGradient>
<linearGradient id="paint9_linear_82_9328" x1="46.0875" y1="39.6045" x2="46.0875" y2="49.4249" gradientUnits="userSpaceOnUse">
<stop stop-color="#00BED8"/>
<stop offset="1" stop-color="#008294"/>
</linearGradient>
</defs>
</svg>
